<svg version="1.1" id="Layer_1" xmlns="http://www.w3.org/2000/svg" x="0" y="0" viewBox="0 0 33.2 33.2" xml:space="preserve"><style>.st3{fill:#eb5424}</style><path d="M23.7 27.8H9.5c-.1 0-.2-.1-.2-.2L4.9 14.1c0-.1 0-.2.1-.3l11.5-8.4c.1-.1.2-.1.3 0l11.5 8.4c.1.1.1.2.1.3L24 27.6c-.1.1-.2.2-.3.2zm-14-.5h13.9l4.3-13.2L16.6 6 5.4 14.1l4.3 13.2z" fill="#fff"/><path class="st3" d="M16.6 8.5L7.8 15l3.4 10.4h10.9L25.5 15l-8.9-6.5zm1.2 8.6v1.2l-.4.8.4.6-.4.4.4.7-.6.6.5 1.2-1.5.9-1-1V17c-1-.5-1.7-1.5-1.7-2.7 0-1.6 1.3-2.9 2.9-2.9 1.6 0 2.9 1.3 2.9 2.9.3 1.3-.4 2.3-1.5 2.8z"/><circle class="st3" cx="16.6" cy="13.6" r=".6"/></svg>