<svg version="1.1" id="Layer_1" xmlns="http://www.w3.org/2000/svg" x="0" y="0" viewBox="0 0 33.2 33.2" xml:space="preserve"><style>.st1{fill:#fff}</style><path class="st1" d="M24.5 27.5H8.8c-.1 0-.2-.1-.2-.2V6c0-.1.1-.2.2-.2h15.7c.1 0 .2.1.2.2v21.2c0 .1-.1.3-.2.3zM9 27h15.2V6.3H9V27z"/><path class="st1" d="M22.5 6.2c0 1 .8 1.9 1.9 1.9V6.2h-1.9zm-11.8 0c0 1-.8 1.9-1.9 1.9V6.2h1.9zm11.8 20.9c0-1 .8-1.9 1.9-1.9v1.9h-1.9zm-11.8 0c0-1-.8-1.9-1.9-1.9v1.9h1.9z"/><path d="M16.6 12.2c-2.4 0-4.4 2-4.4 4.4 0 2.4 2 4.4 4.4 4.4s4.4-2 4.4-4.4c0-2.4-1.9-4.4-4.4-4.4zm2.1 2.7l-2.5 3.6c0 .1-.1.1-.2.1s-.1 0-.2-.1l-1.2-1.2c-.1-.1-.1-.3 0-.4s.3-.1.4 0l1 1 2.3-3.4c.1-.1.2-.1.3-.1.1.3.2.4.1.5z" fill="#eb5424"/></svg>