<svg version="1.1" id="Layer_1" xmlns="http://www.w3.org/2000/svg" x="0" y="0" viewBox="0 0 33.2 33.2" xml:space="preserve"><style/><path d="M23.7 27.8H9.5c-.1 0-.2-.1-.2-.2L4.9 14.1c0-.1 0-.2.1-.3l11.5-8.4c.1-.1.2-.1.3 0l11.5 8.4c.1.1.1.2.1.3L24 27.6c-.1.1-.2.2-.3.2zm-14-.5h13.9l4.3-13.2L16.6 6 5.4 14.1l4.3 13.2z" fill="#fff"/><path d="M16.6 8.5L7.8 15l3.4 10.4h10.9L25.5 15l-8.9-6.5zm0 13.6c-2.3 0-4.4-.2-3.9-1.8.3-1.4 1.6-2.5 3.1-2.8-.8-.3-1.4-1.2-1.4-2.1 0-1.3 1-2.3 2.3-2.3s2.3 1 2.3 2.3c0 1-.6 1.8-1.5 2.1 1.5.3 2.9 1.6 3.1 2.9.2 1.4-1.7 1.7-4 1.7z" fill="#eb5424"/></svg>