<svg version="1.1" id="Layer_1" xmlns="http://www.w3.org/2000/svg" x="0" y="0" viewBox="0 0 33.2 33.2" xml:space="preserve"><style>.st1{fill:#fff}.st3{fill:#eb5424}</style><path class="st3" d="M9.9 13.2h13.6v2.4H9.9z"/><path class="st1" d="M23.6 15.8H9.9c-.1 0-.2-.1-.2-.2v-2.4c0-.1.1-.2.2-.2h13.6c.1 0 .2.1.2.2v2.4c.1.1 0 .2-.1.2zm-13.4-.5h13.1v-1.9H10.2v1.9z"/><path class="st3" d="M9.9 20.1h13.6v2.4H9.9z"/><path class="st1" d="M23.6 22.8H9.9c-.1 0-.2-.1-.2-.2v-2.4c0-.1.1-.2.2-.2h13.6c.1 0 .2.1.2.2v2.4c.1 0 0 .2-.1.2zm-13.4-.5h13.1v-1.9H10.2v1.9z"/><path class="st1" d="M24.9 20.3H8.6c-.1 0-.2-.1-.2-.2v-4.5c0-.1.1-.2.2-.2h16.3c.1 0 .2.1.2.2v4.5c0 .1-.1.2-.2.2zm-16-.5h15.8v-4H8.9v4zm16-6.4H8.6c-.1 0-.2-.1-.2-.2V8.7c0-.1.1-.2.2-.2h16.3c.1 0 .2.1.2.2v4.5c0 .1-.1.2-.2.2zm-16-.5h15.8v-4H8.9v4zm16 14.4H8.6c-.1 0-.2-.1-.2-.2v-4.5c0-.1.1-.2.2-.2h16.3c.1 0 .2.1.2.2V27c0 .1-.1.3-.2.3zm-16-.5h15.8v-4H8.9v4zm-.8-1.5H5.5c-.1 0-.2-.1-.2-.2s.1-.2.2-.2h2.7c.1 0 .2.1.2.2s-.1.2-.3.2z"/><path class="st1" d="M27.8 25.3h-2.7c-.1 0-.2-.1-.2-.2s.1-.2.2-.2h2.7c.1 0 .2.1.2.2s-.1.2-.2.2zM7.3 24.2h1V26h-1z"/><path class="st1" d="M25.1 24.2h1V26h-1z"/><path class="st3" d="M22.2 18h-5.7c-.1 0-.2-.1-.2-.2s.1-.2.2-.2h5.7c.1 0 .2.1.2.2s0 .2-.2.2zm.2 7h-5.7c-.1 0-.2-.1-.2-.2s.1-.2.2-.2h5.7c.1 0 .2.1.2.2s0 .2-.2.2zm-.2-13.9h-5.7c-.1 0-.2-.1-.2-.2s.1-.2.2-.2h5.7c.1 0 .2.1.2.2s0 .2-.2.2z"/><circle class="st1" cx="14" cy="10.9" r=".6"/><circle class="st1" cx="14" cy="17.8" r=".6"/><circle class="st1" cx="14" cy="24.7" r=".6"/><path class="st1" d="M22.9 8.9h-4.2c-.1 0-.2 0-.2-.1s-.1-.2 0-.2l.9-2.4c0-.2.1-.2.2-.2h2.3c.1 0 .2 0 .2.1l.9 2.4v.2c0 .1-.1.2-.1.2zM19 8.4h3.5l-.7-1.9h-2L19 8.4z"/></svg>