<svg version="1.1" id="Layer_1" xmlns="http://www.w3.org/2000/svg" x="0" y="0" viewBox="0 0 33.2 33.2" xml:space="preserve"><style>.st1{fill:#fff}.st3{fill:#eb5424}</style><path class="st1" d="M26.9 26.6h-1.8c-.1 0-.2-.1-.2-.2s.1-.2.2-.2h1.8c1.1 0 2-1.9 2-4.2s-.9-4.2-2-4.2h-1.8c-.1 0-.2-.1-.2-.2s.1-.2.2-.2h1.8c1.4 0 2.5 2.1 2.5 4.8s-1.1 4.4-2.5 4.4z"/><path class="st1" d="M25.1 26.6c-.6 0-1.2-.4-1.6-1.1-.1-.1 0-.3.1-.3.1-.1.3 0 .3.1.4.6.8.9 1.2.9 1.1 0 2-1.9 2-4.2s-.9-4.2-2-4.2c-.5 0-.9.4-1.1.8-.1.1-.2.1-.3.1-.1-.1-.1-.2-.1-.3.4-.7 1-1 1.5-1 1.4 0 2.5 2.1 2.5 4.8s-1.1 4.4-2.5 4.4z"/><path class="st1" d="M23.9 25.6c-.1 0-.2-.1-.2-.2s.1-.2.2-.2c.7 0 1.5-1.3 1.5-3.3 0-2-.8-3.3-1.5-3.3h-5c-.1 0-.2-.1-.2-.2s.1-.2.2-.2h5.2c1 .2 1.8 1.8 1.8 3.8 0 1.9-.9 3.6-2 3.6zm-9.6-7.1H9.5c-.1 0-.2-.1-.2-.2s.1-.3.2-.3h4.8c.1 0 .2.1.2.2s0 .3-.2.3zm0 7.1H9.6c-.1 0-.2-.1-.2-.2s.1-.2.2-.2h4.7c.1 0 .2.1.2.2s-.1.2-.2.2z"/><path class="st1" d="M24 25.6h-5c-.1 0-.2-.1-.2-.2s.1-.2.2-.2h5c.1 0 .2.1.2.2s-.1.2-.2.2zm-15.8 1H6.4c-.1 0-.2-.1-.2-.2s.1-.2.2-.2h1.8c1.1 0 2-1.9 2-4.2s-.9-4.2-2-4.2H6.4c-.1 0-.2-.1-.2-.2s.1-.2.2-.2h1.8c1.4 0 2.5 2.1 2.5 4.8s-1.1 4.4-2.5 4.4z"/><path class="st1" d="M6.4 26.6c-1.4 0-2.5-2.1-2.5-4.8S5 17 6.4 17s2.5 2.1 2.5 4.8-1.1 4.8-2.5 4.8zm0-9c-1.1 0-2 1.9-2 4.2s.9 4.2 2 4.2 2-1.9 2-4.2-.9-4.2-2-4.2z"/><ellipse class="st1" cx="6.3" cy="21.9" rx=".9" ry="2.4"/><path class="st3" d="M16.5 15.4c-.1 0-.2-.1-.2-.2V15c0-.1.1-.2.2-.2s.2.1.2.2v.2c.1.1 0 .2-.2.2zm0-2.2c-.1 0-.2-.1-.2-.2v-2c0-.1.1-.2.2-.2s.2.1.2.2v2c.1.1 0 .2-.2.2zm0-4c-.1 0-.2-.1-.2-.2V7c0-.1.1-.2.2-.2s.2.1.2.2v2c.1.1 0 .2-.2.2zm1 17.4h-1.8c-.1 0-.2-.1-.2-.2s.1-.2.2-.2h1.8c1.1 0 2-1.9 2-4.2s-.9-4.2-2-4.2h-1.8c-.1 0-.2-.1-.2-.2s.1-.2.2-.2h1.8c1.4 0 2.5 2.1 2.5 4.8s-1.1 4.4-2.5 4.4z"/><path class="st3" d="M15.7 26.6c-.7 0-1.2-.3-1.6-1.1-.1-.1 0-.3.1-.3.1-.1.3 0 .3.1.4.7.7.9 1.2.9 1.1 0 2-1.9 2-4.2s-.9-4.2-2-4.2c-.5 0-.9.5-1.2.8-.1.1-.2.1-.3.1-.1-.1-.1-.2-.1-.3.4-.7 1-1.1 1.6-1.1 1.4 0 2.5 2.1 2.5 4.8s-1.1 4.5-2.5 4.5z"/><path class="st3" d="M14.3 25.6c-.1 0-.2-.1-.2-.2s.1-.2.2-.2c.8 0 1.7-1.4 1.7-3.3 0-2-.8-3.3-1.5-3.3-.1 0-.2-.1-.2-.2s.1-.2.2-.2c1.1 0 2 1.7 2 3.8 0 1.8-1 3.6-2.2 3.6z"/></svg>