<svg version="1.1" id="Layer_1" xmlns="http://www.w3.org/2000/svg" x="0" y="0" viewBox="0 0 33.2 33.2" xml:space="preserve"><style/><path d="M16.6 28.5c-6.5 0-11.9-5.3-11.9-11.9S10.1 4.8 16.6 4.8s11.9 5.3 11.9 11.9-5.3 11.8-11.9 11.8zm0-23.2c-6.3 0-11.4 5.1-11.4 11.4S10.4 28 16.6 28 28 22.9 28 16.6 22.9 5.3 16.6 5.3z" fill="#fff"/><path d="M16.6 7C11.3 7 7 11.3 7 16.6s4.3 9.6 9.6 9.6 9.6-4.3 9.6-9.6C26.3 11.3 22 7 16.6 7zm.1 15c-3.3 0-6.3-.3-5.7-2.7.5-1.8 2-3.4 3.9-4-.9-.6-1.5-1.6-1.5-2.8 0-1.8 1.5-3.3 3.3-3.3s3.3 1.5 3.3 3.3c0 1.2-.6 2.2-1.6 2.8 2 .6 3.7 2.3 4 4 .4 2.3-2.3 2.7-5.7 2.7z" fill="#eb5424"/></svg>