<svg version="1.1" id="Layer_1" xmlns="http://www.w3.org/2000/svg" x="0" y="0" viewBox="0 0 33.2 33.2" xml:space="preserve"><style/><path d="M16.6 28.4c-.1 0-.1 0-.2-.1L5 18.8c-.1 0-.1-.1-.1-.2s0-.1.1-.2L16.4 5c.1-.1.3-.1.4 0l11.5 13.5c0 .1.1.1.1.2s0 .1-.1.2l-11.5 9.5h-.2zM5.5 18.6l11.1 9.2 11.1-9.2L16.6 5.5 5.5 18.6z" fill="#fff"/><path d="M16.6 8.3L8 18.4l8.6 7.1 8.6-7.1-8.6-10.1zm.6 8c-.1 0-.2.1-.2.3 0 .1.1.2.2.2 1.1.2 2.1 1.1 2.2 2 0 .2 0 .4-.1.6-.4.5-1.7.6-2.7.6-1.1 0-2.4-.1-2.7-.5-.1-.1-.1-.3-.1-.6.2-1 1.1-1.8 2.2-2 .1 0 .2-.1.2-.2s-.1-.2-.2-.3c-.6-.2-1-.8-1-1.4 0-.8.7-1.5 1.5-1.5s1.5.7 1.5 1.5c.2.5-.2 1.1-.8 1.3zm-5 2.1c.2-.7.8-1.3 1.7-1.5-.4-.2-.8-.6-.8-1.1 0-.7.5-1.2 1.2-1.2.1 0 .2 0 .4.1v.3c0 .6.3 1.1.7 1.5 0 .1-.1.1-.1.2-.9.4-1.6 1.2-1.9 2.1-.1.2-.1.5 0 .7-.8-.3-1.3-.5-1.2-1.1zm7.7.9c.1-.2.1-.4.1-.6-.2-.9-1-1.8-2-2.2v-.1c.5-.4.7-.9.7-1.5v-.3h.3c.7 0 1.2.5 1.2 1.2 0 .5-.3.9-.8 1.1.8.2 1.5.8 1.7 1.5 0 .6-.5.8-1.2.9z" fill="#eb5424"/></svg>