<svg version="1.1" id="Layer_1" xmlns="http://www.w3.org/2000/svg" x="0" y="0" viewBox="0 0 33.2 33.2" xml:space="preserve"><style>.st1{fill:#fff}</style><path class="st1" d="M16.6 27.4c-4.7 0-9.8-.9-9.8-2.5V8.4c0-.1.1-.2.2-.2s.2.1.2.2v16.4c0 .8 3.5 2 9.3 2 5.7 0 9.3-1.2 9.3-2V8.4c0-.1.1-.2.2-.2s.2.1.2.2v16.4c.2 1.7-4.8 2.6-9.6 2.6z"/><ellipse cx="16.6" cy="8.4" rx="9.5" ry="2.3" fill="#eb5424"/><path class="st1" d="M16.6 10.9c-4.7 0-9.8-.9-9.8-2.5s5-2.5 9.8-2.5 9.8.9 9.8 2.5-5 2.5-9.8 2.5zm0-4.5c-5.7 0-9.3 1.2-9.3 2s3.5 2 9.3 2c5.7 0 9.3-1.2 9.3-2s-3.5-2-9.3-2zm0 15.5c-4.7 0-9.8-.9-9.8-2.5 0-.1.1-.2.2-.2s.2.1.2.2c0 .8 3.5 2 9.3 2 5.7 0 9.3-1.2 9.3-2 0-.1.1-.2.2-.2s.2.1.2.2c.2 1.6-4.8 2.5-9.6 2.5zm0-5.5c-4.7 0-9.8-.9-9.8-2.5 0-.1.1-.2.2-.2s.2.1.2.2c0 .8 3.5 2 9.3 2 5.7 0 9.3-1.2 9.3-2 0-.1.1-.2.2-.2s.2.1.2.2c.2 1.6-4.8 2.5-9.6 2.5zm0-2.9c-.1 0-.2-.1-.2-.2s.1-.2.2-.2c1.2 0 2.3-.1 3.4-.2.1 0 .3.1.3.2s-.1.3-.2.3c-1.1.1-2.3.1-3.5.1zm6.2-.5c-.1 0-.2-.1-.2-.2s.1-.3.2-.3c.3-.1.5-.1.8-.2.1 0 .3 0 .3.2 0 .1 0 .3-.2.3-.3 0-.5.1-.9.2.1-.1.1 0 0 0zm-6.2 5.9c-.1 0-.2-.1-.2-.2s.1-.2.2-.2c1.2 0 2.3-.1 3.4-.2.1 0 .3.1.3.2s-.1.3-.2.3c-1.1.1-2.3.1-3.5.1zm6.2-.5c-.1 0-.2-.1-.2-.2s.1-.3.2-.3c.3-.1.5-.1.8-.2.1 0 .3 0 .3.2 0 .1 0 .3-.2.3-.3 0-.5.1-.9.2.1 0 .1 0 0 0zm-6.2 5.9c-.1 0-.2-.1-.2-.2s.1-.2.2-.2c1.2 0 2.3-.1 3.4-.2.1 0 .3.1.3.2s-.1.3-.2.3c-1.1.1-2.3.1-3.5.1zm6.2-.5c-.1 0-.2-.1-.2-.2s.1-.3.2-.3c.3-.1.5-.1.8-.2.1 0 .3 0 .3.2 0 .1 0 .3-.2.3-.3.1-.5.1-.9.2.1 0 .1 0 0 0z"/></svg>