<svg version="1.1" id="Layer_1" xmlns="http://www.w3.org/2000/svg" x="0" y="0" viewBox="0 0 33.2 33.2" xml:space="preserve"><style>.st1{fill:#fff}</style><path class="st1" d="M24.5 27.5H8.8c-.1 0-.2-.1-.2-.2V6c0-.1.1-.2.2-.2h15.7c.1 0 .2.1.2.2v21.2c0 .1-.1.3-.2.3zM9 27h15.2V6.3H9V27z"/><path class="st1" d="M21.2 21.1H12c-.1 0-.2-.1-.2-.2s.1-.2.2-.2h9.2c.1 0 .2.1.2.2s-.1.2-.2.2zm0 2.7H12c-.1 0-.2-.1-.2-.2s.1-.2.2-.2h9.2c.1 0 .2.1.2.2s-.1.2-.2.2z"/><path d="M18.8 11.7c0-1.2-1-2.2-2.2-2.2-1.2 0-2.2 1-2.2 2.2 0 .9.5 1.6 1.3 2v4.1l.7.7 1.1-.6-.4-.9.5-.4-.3-.5.3-.3-.3-.5.3-.6v-.9c.7-.5 1.2-1.3 1.2-2.1zm-2.2-.2c-.3 0-.5-.2-.5-.5s.2-.5.5-.5.5.2.5.5-.2.5-.5.5z" fill="#eb5424"/></svg>