<svg version="1.1" id="Layer_1" xmlns="http://www.w3.org/2000/svg" x="0" y="0" viewBox="0 0 33.2 33.2" xml:space="preserve"><style/><path d="M25.4 12.7l-2.1-6.4H9.9l-2.1 6.4c-1.2 3.8.1 8 3.4 10.3l5.4 3.9L22 23c3.3-2.4 4.6-6.5 3.4-10.3zm-5.6 3.8l2 6-5.1-3.7-5.1 3.7 2-6-5.1-3.7h6.3l2-6 2 6h6.3l-5.3 3.7z" fill="#eb5424"/><path d="M16.6 27.2l-5.6-4c-3.3-2.4-4.7-6.7-3.4-10.6l2.1-6.5h13.8l2.1 6.5c1.3 3.9-.1 8.2-3.4 10.6l-5.6 4zm-5.3-4.4l5.3 3.8 5.3-3.8c3.2-2.3 4.5-6.3 3.3-10l-2-6.2h-13l-2 6.2c-1.3 3.7 0 7.7 3.1 10z" fill="#fff"/></svg>