<svg version="1.1" id="Layer_1" xmlns="http://www.w3.org/2000/svg" x="0" y="0" viewBox="0 0 33.2 33.2" xml:space="preserve"><style>.st1{fill:#fff}</style><path class="st1" d="M24.9 24.3c-.1 0-.1 0 0 0-.2-.1-.3-.2-.2-.3l3.2-9.9-4.4-3.2c-.1-.1-.1-.2-.1-.3.1-.1.2-.1.3-.1l4.6 3.3c.1.1.1.2.1.3l-3.3 10c0 .2-.1.2-.2.2zm-2.4 3.5h-13c-.1 0-.2-.1-.2-.2l-1.9-5.8c0-.1 0-.3.2-.3s.3 0 .3.2l1.9 5.7h12.8c.1 0 .2.1.2.2s-.2.2-.3.2zM6.3 18c-.1 0-.2-.1-.2-.2l-1.2-3.7c0-.1 0-.2.1-.3l11.5-8.4c.1-.1.2-.1.3 0L20.1 8c.1.1.1.2 0 .4-.1.1-.2.1-.4 0L16.6 6 5.4 14.1l1.1 3.5c.1.2 0 .3-.2.4.1 0 0 0 0 0z"/><path fill="#eb5424" d="M16.6 10.4l-7 5.1 2.7 8.3H21l2.7-8.3z"/><path class="st1" d="M24.9 24.6c-.1 0-.2-.1-.2-.1l-1.1-1.7c-.1-.1 0-.3.1-.3.1-.1.3 0 .3.1l1 1.5 1.5-1c.1-.1.3 0 .3.1s0 .3-.1.3L25 24.6h-.1zM18.2 8.9c-.1 0-.2-.1-.2-.2s.1-.3.2-.3l1.8-.3-.3-1.8c0-.1.1-.3.2-.3s.3.1.3.2l.3 2c0 .1-.1.3-.2.3l-2.1.4zM6.6 23.4h-.1c-.1-.1-.2-.2-.1-.3l1-1.8c.1-.1.2-.2.3-.1l1.8 1c.1.1.2.2.1.3-.1.1-.2.2-.3.1l-1.6-.8-.8 1.6h-.3z"/></svg>