<svg version="1.1" id="Layer_1" xmlns="http://www.w3.org/2000/svg" x="0" y="0" viewBox="0 0 33.2 33.2" xml:space="preserve"><style>.st1{fill:#fff}.st3{fill:#eb5424}</style><path class="st1" d="M24.8 27.6H8.4c-.1 0-.2-.1-.2-.2V5.9c0-.1.1-.2.2-.2h16.4c.1 0 .2.1.2.2v21.5c.1.1 0 .2-.2.2zm-16.1-.5h15.9v-21H8.7v21z"/><path class="st1" d="M16.6 10.7h-5.5c-.1 0-.2-.1-.2-.2s.1-.2.2-.2h5.5c.1 0 .2.1.2.2s0 .2-.2.2z"/><path class="st3" d="M21.3 10.7h-2.2c-.1 0-.2-.1-.2-.2s.1-.2.2-.2h2.2c.1 0 .2.1.2.2s-.1.2-.2.2z"/><path class="st1" d="M16.6 13.7h-5.5c-.1 0-.2-.1-.2-.2s.1-.2.2-.2h5.5c.1 0 .2.1.2.2s0 .2-.2.2z"/><path class="st3" d="M22.3 13.7h-3.2c-.1 0-.2-.1-.2-.2s.1-.2.2-.2h3.2c.1 0 .2.1.2.2s-.1.2-.2.2z"/><path class="st1" d="M16.6 16.7h-5.5c-.1 0-.2-.1-.2-.2s.1-.2.2-.2h5.5c.1 0 .2.1.2.2s0 .2-.2.2z"/><path class="st3" d="M20.3 16.7h-1.2c-.1 0-.2-.1-.2-.2s.1-.2.2-.2h1.2c.1 0 .2.1.2.2s-.1.2-.2.2z"/><path class="st1" d="M16.6 19.7h-5.5c-.1 0-.2-.1-.2-.2s.1-.2.2-.2h5.5c.1 0 .2.1.2.2s0 .2-.2.2z"/><path class="st3" d="M22.3 19.7h-3.2c-.1 0-.2-.1-.2-.2s.1-.2.2-.2h3.2c.1 0 .2.1.2.2s-.1.2-.2.2z"/><path class="st1" d="M16.6 22.7h-5.5c-.1 0-.2-.1-.2-.2s.1-.2.2-.2h5.5c.1 0 .2.1.2.2s0 .2-.2.2z"/><path class="st3" d="M19.3 22.7h-.2c-.1 0-.2-.1-.2-.2s.1-.2.2-.2h.2c.1 0 .2.1.2.2s-.1.2-.2.2z"/></svg>