<svg version="1.1" id="Layer_1" xmlns="http://www.w3.org/2000/svg" x="0" y="0" viewBox="0 0 33.2 33.2" xml:space="preserve"><style>.st1{fill:#fff}</style><path class="st1" d="M16.6 27.9c-6.2 0-11.3-5.1-11.3-11.3 0-6.2 5.1-11.3 11.3-11.3.1 0 .2.1.2.2.3 1.8 1.1 2.7 2.7 2.8.1 0 .1 0 .2.1 0 .1.1.1 0 .2 0 .2-.1.4-.1.5 0 1.6 1.3 2.9 2.9 2.9.5 0 1-.1 1.4-.4h.2c.1 0 .1.1.2.1.4 1.1 1.6 1.9 2.9 1.9.1 0 .2.1.2.2.2.9.4 1.9.4 2.8.2 6.3-4.9 11.3-11.2 11.3zm-.2-22.1c-5.9.1-10.6 4.9-10.6 10.8 0 6 4.9 10.8 10.8 10.8 6 0 10.8-4.9 10.8-10.8 0-.9-.1-1.7-.3-2.5-1.3-.1-2.5-.9-3-1.9-.5.2-1 .3-1.5.3-1.9 0-3.4-1.5-3.4-3.4v-.3c-1.5-.2-2.4-1.2-2.8-3z"/><path d="M18.1 10c-.2 1.9 2 4.7 5.3 3.7.4 1 .9 1.4 2.6 1.8.6 5.4-4.3 10.4-9.4 10.4s-9.4-4.1-9.3-9.3c.1-4.9 4-8.8 8-8.9.3 1.7 1.4 2.2 2.8 2.3z" fill="#eb5424"/><path class="st1" d="M14 8.7h-.1L12.7 8c-.1-.1-.2-.2-.1-.3.1-.1.2-.2.3-.1l1.1.6c.1.1.2.2.1.3 0 .1-.1.2-.1.2zm.8 13.3c-.1 0-.2-.1-.2-.2s0-.3.2-.3l1.1-.4c.1 0 .3 0 .3.2 0 .1 0 .3-.2.3l-1.2.4zm3.5-9.5c-.1 0-.2 0-.2-.1-.1-.1 0-.3.1-.3l1.2-.7c.1-.1.3 0 .3.1.1.1 0 .3-.1.3l-1.2.7h-.1zm-5 1.5c-.1 0-.1 0-.2-.1l-.7-.6c-.1-.1-.1-.3 0-.4.1-.1.3-.1.4 0l.7.6c.1.1.1.3 0 .4-.1.1-.2.1-.2.1zm-3.5 2c-.1 0-.2 0-.2-.1-.1-.1-.1-.3.1-.3l.8-.6c.1-.1.3-.1.3.1.1.1.1.3-.1.3l-.8.6h-.1zm-1-5.2c-.1 0-.1 0-.2-.1l-.5-.6c-.1-.1-.1-.3 0-.4.1-.1.3-.1.4 0l.5.7c.1.1.1.3 0 .4h-.2zm-1.4 9.6c-.1 0-.2-.1-.2-.2s.1-.3.2-.3l1.1-.1c.1 0 .3.1.3.2s-.1.3-.2.3l-1.2.1zm4.6 5.3c-.1 0-.2-.1-.2-.2V25c0-.1.1-.2.2-.2s.2.1.2.2v.4c.1.2 0 .3-.2.3zm13.8-6.5h-.1l-.8-.4c-.1-.1-.2-.2-.1-.3.1-.1.2-.2.3-.1l.8.4c.1.1.2.2.1.3 0 0-.1.1-.2.1zm-3.7-4.7c-.1 0-.2-.1-.2-.2-.1-.1 0-.3.1-.3l.9-.4c.1-.1.3 0 .3.1.1.1 0 .3-.1.3l-1 .5c.1 0 0 0 0 0zm-4.7 3.4c-.1 0-.1 0-.2-.1l-.6-.6c-.1-.1-.1-.3 0-.4s.3-.1.4 0l.6.6c.1.1.1.3 0 .4-.1.1-.1.1-.2.1zm-4.7.9c-.2 0-.3-.2-.2-.3l.1-.3c0-.1.2-.2.3-.2.1 0 .2.2.2.3l-.1.3c-.1.1-.2.2-.3.2zm7.1 4.4c-.2 0-.3-.2-.2-.3l.2-1.5c0-.1.2-.2.3-.2.1 0 .2.2.2.3L20 23c0 .1-.1.2-.2.2z"/></svg>