<svg version="1.1" id="Layer_1" xmlns="http://www.w3.org/2000/svg" x="0" y="0" viewBox="0 0 33.2 33.2" xml:space="preserve"><style>.st1{fill:#fff}</style><path fill="#eb5424" d="M7.6 9.3h17.9v7.2H7.6z"/><path class="st1" d="M25.8 28.4H7.4c-.1 0-.2-.1-.2-.2v-23c0-.1.1-.2.2-.2h18.4c.1 0 .2.1.2.2v23c.1.1 0 .2-.2.2zm-18.1-.5h17.9V5.4H7.7v22.5z"/><path class="st1" d="M25.8 16.7H7.4c-.1 0-.2-.1-.2-.2V9.3c0-.1.1-.2.2-.2h18.4c.1 0 .2.1.2.2v7.1c.1.2 0 .3-.2.3zm-18.1-.5h17.9V9.6H7.7v6.6z"/><circle class="st1" cx="18.6" cy="7.1" r=".7"/><path class="st1" d="M23.9 7.3h-3.1c-.1 0-.2-.1-.2-.2s.1-.2.2-.2h3.1c.1 0 .2.1.2.2s0 .2-.2.2zm-5.5 12.5h-3.5c-.1 0-.2-.1-.2-.2s.1-.2.2-.2h3.5c.1 0 .2.1.2.2s-.1.2-.2.2zm-3 3.1H9.8c-.1 0-.2-.1-.2-.2s.1-.2.2-.2h5.6c.1 0 .2.1.2.2s0 .2-.2.2zm0 2.3H9.8c-.1 0-.2-.1-.2-.2s.1-.2.2-.2h5.6c.1 0 .2.1.2.2s0 .2-.2.2zm8-2.3h-5.6c-.1 0-.2-.1-.2-.2s.1-.2.2-.2h5.6c.1 0 .2.1.2.2s-.1.2-.2.2zm0 2.3h-5.6c-.1 0-.2-.1-.2-.2s.1-.2.2-.2h5.6c.1 0 .2.1.2.2s-.1.2-.2.2z"/></svg>