<svg version="1.1" id="Layer_1" xmlns="http://www.w3.org/2000/svg" x="0" y="0" viewBox="0 0 33.2 33.2" xml:space="preserve"><style>.st1{fill:#fff}.st3{fill:#eb5424}</style><path class="st1" d="M26.1 24.9H10.2c-.1 0-.2-.1-.2-.2s.1-.2.2-.2h15.9c.1 0 .2.1.2.2s0 .2-.2.2zm-17.8 0H6.6c-.1 0-.2-.1-.2-.2s.1-.2.2-.2h1.7c.1 0 .2.1.2.2s0 .2-.2.2zm14.8-2.7h-16c-.1 0-.2-.1-.2-.2s.1-.2.2-.2H23c.1 0 .2.1.2.2s0 .2-.1.2zm3.5 0h-1.7c-.1 0-.2-.1-.2-.2s.1-.2.2-.2h1.7c.1 0 .2.1.2.2s-.1.2-.2.2z"/><path class="st3" d="M16.9 26.2c-1.3 0-2.3-1.1-2.3-2.3v-1.4c0-1.3 1.1-2.3 2.3-2.3 1.3 0 2.3 1.1 2.3 2.3v1.4c0 1.2-1 2.3-2.3 2.3z"/><path class="st1" d="M16.9 26.4c-1.4 0-2.6-1.2-2.6-2.6v-1.4c0-1.4 1.2-2.6 2.6-2.6 1.4 0 2.6 1.2 2.6 2.6v1.4c0 1.5-1.2 2.6-2.6 2.6zm0-6.1c-1.2 0-2.1.9-2.1 2.1v1.4c0 1.2.9 2.1 2.1 2.1s2.1-.9 2.1-2v-1.4c0-1.2-1-2.2-2.1-2.2z"/><path class="st1" d="M16.9 20.3c-.1 0-.2-.1-.2-.2v-3.8c0-.1.1-.3.2-.3s.2.1.2.3v3.8c.1.1 0 .2-.2.2z"/><path class="st1" d="M21.2 16.5h-8.9c-1.2 0-2.1-1-2.1-2.1V8.9c0-1.2 1-2.1 2.1-2.1h8.9c1.2 0 2.1 1 2.1 2.1v5.4c0 1.2-1 2.2-2.1 2.2zm-8.9-9.2c-.9 0-1.6.7-1.6 1.6v5.4c0 .9.7 1.6 1.6 1.6h8.9c.9 0 1.6-.7 1.6-1.6V8.9c0-.9-.7-1.6-1.6-1.6h-8.9z"/><path class="st3" d="M19.2 14.2c-.1 0-.1 0-.2-.1s-.1-.3 0-.4l1.1-1h-4.5c-.1 0-.2-.1-.2-.2s.1-.2.2-.2h5.2c.1 0 .2.1.2.2s0 .2-.1.3l-1.5 1.4h-.2zm-1.3-3.3h-5.2c-.1 0-.2-.1-.2-.1v-.3L13.8 9c.1-.1.3-.1.4 0 .1.1.1.3 0 .4l-.9 1h4.6c.1 0 .2.1.2.2s0 .3-.2.3z"/></svg>