<svg version="1.1" id="Layer_1" xmlns="http://www.w3.org/2000/svg" x="0" y="0" viewBox="0 0 33.2 33.2" xml:space="preserve"><style>.st1{fill:#fff}</style><path class="st1" d="M25.7 25H7.5c-.1 0-.2-.1-.2-.2v-7c0-.1.1-.2.2-.2h18.2c.1 0 .2.1.2.2v7c.1 0 0 .2-.2.2zm-17.9-.5h17.7V18H7.8v6.5z"/><path class="st1" d="M26.5 17.9H6.7c-.1 0-.2-.1-.2-.2v-4.3c0-1.1.9-2 2-2h16.3c1.1 0 2 .9 2 2v4.3c0 .1-.1.2-.3.2zM7 17.4h19.3v-4c0-.8-.7-1.5-1.5-1.5H8.5c-.8 0-1.5.7-1.5 1.5v4z"/><path d="M10.6 15.5h3.2v4.2h-3.2zm8.8 0h3.2v4.2h-3.2z" fill="#eb5424"/><path class="st1" d="M21.3 11.9h-9.4c-.1 0-.2-.1-.2-.2V9.3c0-.6.5-1.1 1.1-1.1h7.8c.6 0 1.1.5 1.1 1.1v2.3c-.1.1-.3.3-.4.3zm-9.1-.5h8.9v-2c0-.3-.2-.6-.6-.6h-7.8c-.3 0-.6.2-.6.6v2z"/></svg>