<svg version="1.1" id="Layer_1" xmlns="http://www.w3.org/2000/svg" x="0" y="0" viewBox="0 0 33.2 33.2" xml:space="preserve"><style>.st1{fill:#fff}.st3{fill:#eb5424}</style><path class="st3" d="M23.6 16.7H9.9v-2.4h9.2l.2.6h4.3z"/><path class="st1" d="M23.6 16.9H9.9c-.1 0-.2-.1-.2-.2v-2.4c0-.1.1-.2.2-.2h9.2c.1 0 .2.1.2.2l.1.5h4.1c.1 0 .2.1.2.2v1.8c.1 0 0 .1-.1.1zm-13.4-.5h13.1v-1.3h-4c-.1 0-.2-.1-.2-.2l-.1-.5h-8.7v2z"/><path class="st3" d="M9.9 21.2h13.6v2.4H9.9z"/><path class="st1" d="M23.6 23.9H9.9c-.1 0-.2-.1-.2-.2v-2.4c0-.1.1-.2.2-.2h13.6c.1 0 .2.1.2.2v2.4c.1.1 0 .2-.1.2zm-13.4-.5h13.1v-1.9H10.2v1.9z"/><path class="st1" d="M24.9 21.4H8.6c-.1 0-.2-.1-.2-.2v-4.5c0-.1.1-.2.2-.2h16.3c.1 0 .2.1.2.2v4.5c0 .1-.1.2-.2.2zm-16-.5h15.8v-4H8.9v4zm10.2-6.4H8.6c-.1 0-.2-.1-.2-.2V9.8c0-.1.1-.2.2-.2h9c.1 0 .2.1.2.2s0 .2-.2.2H8.9v4h10.2c.1 0 .2.1.2.2s-.1.3-.2.3zm5.8 13.9H8.6c-.1 0-.2-.1-.2-.2v-4.5c0-.1.1-.2.2-.2h16.3c.1 0 .2.1.2.2v4.5c0 .1-.1.2-.2.2zm-16-.5h15.8v-4H8.9v4zm-.8-1.5H5.5c-.1 0-.2-.1-.2-.2s.1-.2.2-.2h2.7c.1 0 .2.1.2.2s-.1.2-.3.2z"/><path class="st1" d="M27.8 26.4h-2.7c-.1 0-.2-.1-.2-.2s.1-.2.2-.2h2.7c.1 0 .2.1.2.2s-.1.2-.2.2zM7.3 25.3h1v1.8h-1z"/><path class="st1" d="M25.1 25.3h1v1.8h-1z"/><path class="st3" d="M22.2 19.1h-5.7c-.1 0-.2-.1-.2-.2s.1-.2.2-.2h5.7c.1 0 .2.1.2.2s0 .2-.2.2zm.2 7.1h-5.7c-.1 0-.2-.1-.2-.2s.1-.2.2-.2h5.7c.1 0 .2.1.2.2s0 .2-.2.2zm-4.1-14h-1.8c-.1 0-.2-.1-.2-.2s.1-.2.2-.2h1.8c.1 0 .2.1.2.2s0 .2-.2.2z"/><circle class="st1" cx="14" cy="12" r=".6"/><circle class="st1" cx="14" cy="18.9" r=".6"/><circle class="st1" cx="14" cy="25.8" r=".6"/><path class="st1" d="M25.6 15.1h-6.3c-.1 0-.2-.1-.2-.2l-2-6c0-.1 0-.2.1-.3l5.1-3.7c.1-.1.2-.1.3 0l5.1 3.7c.1.1.1.2.1.3l-2 6c.1.2 0 .2-.2.2zm-6.1-.5h6L27.3 9l-4.8-3.5L17.6 9l1.9 5.6z"/><path class="st3" d="M22.5 7.2l-3.3 2.3 1.3 3.8h4l1.2-3.8z"/></svg>