<svg version="1.1" id="Layer_1" xmlns="http://www.w3.org/2000/svg" x="0" y="0" viewBox="0 0 33.2 33.2" xml:space="preserve"><style>.st1{fill:#fff}</style><path class="st1" d="M28.1 25.9h-23c-.1 0-.2-.1-.2-.2v-18c0-.1.1-.2.2-.2h23c.1 0 .2.1.2.2v18c.1.1 0 .2-.2.2zm-22.7-.5h22.5V7.9H5.4v17.5z"/><path class="st1" d="M28.1 10.9h-23c-.1 0-.2-.1-.2-.2s.1-.2.2-.2h23c.1 0 .2.1.2.2s0 .2-.2.2z"/><circle class="st1" cx="6.6" cy="9.1" r=".5"/><circle class="st1" cx="8.6" cy="9.1" r=".5"/><circle class="st1" cx="10.6" cy="9.1" r=".5"/><path class="st1" d="M20.6 19.9h-8c-.1 0-.2-.1-.2-.2v-2c0-.1.1-.2.2-.2h8c.1 0 .2.1.2.2v2c.1.1 0 .2-.2.2zm-7.7-.5h7.5v-1.5h-7.5v1.5z"/><path fill="#eb5424" d="M5.4 10.9h22.5v2.5H5.4z"/></svg>