<svg version="1.1" id="Layer_1" xmlns="http://www.w3.org/2000/svg" x="0" y="0" viewBox="0 0 33.2 33.2" xml:space="preserve"><style>.st1{fill:#fff}.st3{fill:#eb5424}</style><path class="st1" d="M8.4 17.1h-.2c-.4-.1-.8-.4-.9-.8l-.2-.7c-.1-.4-.4-.6-.7-.5l-.7.1c-.4.1-.9-.1-1.1-.5-.3-.4-.3-.8 0-1.2l.4-.6c0-.3 0-.6-.3-.8l-.6-.4c-.4-.3-.5-.7-.5-1.1s.4-.9.9-1l.7-.2c.3 0 .5-.4.4-.7L5.5 8c-.1-.4.1-.9.5-1.1.4-.3.8-.3 1.2 0l.6.4c.3.1.7 0 .9-.3l.4-.6c.2-.4.7-.5 1.1-.5.4.1.8.4.9.9l.2.7c.1.3.4.5.7.4l.7-.1c.4-.1.9.1 1.1.5.3.4.3.8 0 1.2l-.4.6c-.2.3-.1.6.2.8l.6.4c.4.3.5.7.5 1.1-.1.4-.4.8-.8.9l-.7.2c-.3.1-.5.4-.5.7l.1.7c.1.4-.1.9-.5 1.1-.4.3-.8.3-1.2 0l-.6-.4c-.3-.2-.6-.1-.8.2l-.4.6c-.2.5-.5.7-.9.7zm-1.9-2.5c.5 0 1 .3 1.1.8l.2.7c.1.2.3.4.5.5.2 0 .5-.1.6-.3l.4-.6c.3-.5 1-.6 1.5-.3l.6.4c.2.1.5.1.7 0 .2-.1.3-.4.3-.6l-.1-.7c-.1-.6.3-1.1.8-1.3l.7-.2c.2-.1.4-.3.5-.5s-.1-.5-.3-.7l-.6-.4c-.5-.3-.6-1-.3-1.5l.4-.6c.1-.2.1-.5 0-.7-.1-.2-.4-.3-.6-.3l-.7.1c-.6.1-1.1-.3-1.3-.8l-.2-.7c-.1-.2-.3-.4-.5-.5-.2 0-.5.1-.6.3l-.5.6c-.3.5-1 .6-1.5.3l-.7-.3c-.2-.1-.5-.1-.7 0-.2.1-.2.4-.2.6l.1.7c.1.6-.3 1.1-.8 1.3l-.7.2c-.2.1-.4.3-.5.5 0 .2.1.5.3.6l.6.5c.5.3.6 1 .3 1.5l-.4.6c-.1.2-.1.5 0 .7.1.2.4.3.6.3l.7-.1c.2-.1.2-.1.3-.1z"/><path class="st1" d="M9.2 13.9h-.4c-.6-.1-1.2-.5-1.5-1-.4-.5-.5-1.2-.4-1.8.1-.6.5-1.2 1-1.5.5-.4 1.1-.5 1.7-.4.6.1 1.2.5 1.5 1 .4.5.5 1.2.4 1.8-.2 1.1-1.2 1.9-2.3 1.9zm0-4.3c-.4 0-.8.1-1.1.3-.4.3-.7.7-.8 1.2-.2 1 .5 2 1.5 2.2.5.1 1 0 1.4-.3s.7-.7.8-1.2 0-1-.3-1.4-.7-.6-1.2-.7c-.1-.1-.2-.1-.3-.1zm2.1 2.3z"/><circle class="st3" cx="9.2" cy="11.5" r=".7"/><path class="st1" d="M21.6 27.3c-.5 0-1-.3-1.2-.8v-.1c-.1-.2-.3-.4-.5-.5-.3-.1-.5 0-.7.2H19c-.4.4-1 .4-1.5.1s-.7-.8-.6-1.3v-.1c0-.3 0-.5-.2-.7-.2-.2-.4-.3-.7-.2h-.1c-.5.1-1.1-.1-1.3-.6-.3-.5-.2-1.1.1-1.5l.1-.1c.2-.2.2-.5.2-.7-.1-.3-.2-.4-.5-.5h-.1c-.5-.2-.9-.7-.9-1.2s.3-1 .8-1.2h.1c.2-.1.4-.3.5-.5s0-.5-.2-.7l-.1-.1c-.4-.4-.4-1-.1-1.5.3-.5.8-.7 1.3-.6h.1c.3 0 .5 0 .7-.2s.3-.4.2-.7v-.1c-.1-.5.1-1.1.6-1.3.5-.3 1.1-.2 1.5.1l.1.1c.2.2.5.2.7.2.3-.1.4-.2.5-.5v-.1c.2-.5.7-.8 1.2-.8s1 .3 1.2.8v.1c.1.2.3.4.5.5.3.1.5 0 .7-.2l.1-.1c.4-.4 1-.4 1.5-.1s.7.8.6 1.3v.1c0 .3 0 .5.2.7.2.2.4.3.7.2h.1c.5-.1 1.1.1 1.3.6.3.5.2 1.1-.1 1.5l-.1.1c-.2.2-.2.5-.2.7.1.3.2.4.5.5h.1c.5.2.8.7.8 1.2s-.3 1-.8 1.2h-.1c-.2.1-.4.3-.5.5-.1.3 0 .5.2.7l.1.1c.4.4.4 1 .1 1.5-.3.5-.8.7-1.3.6h-.1c-.3 0-.5 0-.7.2-.2.2-.3.4-.2.7v.1c.1.5-.1 1.1-.6 1.3-.5.3-1.1.2-1.5-.1l.2-.1c-.2-.2-.5-.2-.7-.2-.3.1-.4.2-.5.5v.1c-.3.6-.8.9-1.3.9zm-2-1.9h.3c.4.1.7.4.9.8v.1c.1.4.5.5.7.5s.6-.1.7-.5v-.1c.1-.4.5-.7.9-.8.4-.1.8 0 1.2.3l.1.1c.3.3.7.2.9.1.2-.1.5-.4.4-.8V25c-.1-.4.1-.8.4-1.1s.7-.4 1.1-.4h.1c.4.1.7-.1.8-.4.1-.2.2-.6-.1-.9v-.1c-.3-.3-.4-.8-.3-1.2s.4-.7.8-.9h.1c.4-.1.5-.5.5-.7s-.1-.6-.5-.7h-.1c-.4-.1-.7-.5-.8-.9-.1-.4 0-.8.3-1.2l.1-.1c.3-.3.2-.7.1-.9-.1-.2-.4-.5-.8-.4h-.1c-.4.1-.8-.1-1.1-.4-.3-.3-.4-.7-.4-1.1v-.1c.1-.4-.1-.7-.4-.8-.2-.1-.6-.2-.9.1l-.1.1c-.3.3-.8.4-1.2.3-.4-.1-.7-.4-.9-.8v-.1c-.1-.4-.5-.5-.7-.5s-.6.1-.7.5v.1c-.1.4-.5.7-.9.8-.4.1-.8 0-1.2-.3l-.1-.1c-.3-.3-.7-.2-.9-.1-.2.1-.5.4-.4.8v.1c.1.4-.1.8-.4 1.1-.3.3-.7.4-1.1.4h-.1c-.4-.1-.7.1-.8.4-.1.2-.2.6.1.9l.1.1c.3.3.4.8.3 1.2-.1.4-.4.7-.8.9h-.1c-.4.1-.6.4-.6.7s.1.6.5.7h.1c.4.1.7.5.8.9.1.4 0 .8-.3 1.2l-.1.1c-.3.3-.2.7-.1.9.1.2.4.5.8.4h.1c.4-.1.8.1 1.1.4.3.3.4.7.4 1.1v.1c-.1.4.1.7.4.8.2.1.6.2.9-.1l.1-.1c.3-.2.6-.3.9-.3zm9.1-5.2zM9.3 23.9h-.2c-.3-.1-.5-.3-.5-.6l-.2-1.4c0-.1 0-.1-.1-.2l-1-.9c-.3-.2-.4-.5-.3-.8.1-.3.3-.5.6-.5l1.4-.2c.1 0 .1 0 .2-.1l.9-1c.2-.2.5-.3.8-.2.3.1.5.3.5.6l.2 1.4c0 .1 0 .1.1.2l1 .9c.2.2.3.5.2.8s-.3.5-.6.5l-1.3.2c-.1 0-.1 0-.2.1l-.9 1c-.2.1-.4.2-.6.2zm1.4-5.5c-.1 0-.1 0-.2.1l-.9 1c-.1.1-.3.2-.5.2l-1.4.2c-.1 0-.2.1-.2.2s0 .2.1.3l1 .9c.1.1.2.3.2.5l.2 1.4c0 .1.1.2.2.2s.2 0 .3-.1l.9-1c.1-.1.3-.2.5-.2l1.4-.2c.1 0 .2-.1.2-.2s0-.2-.1-.3l-1-.9c-.1-.1-.2-.3-.2-.5l-.2-1.3c0-.2-.1-.2-.3-.3.1 0 0 0 0 0zm1.6 3.8z"/><circle class="st3" cx="10" cy="20.9" r=".7"/><path class="st3" d="M21.6 14.7c-2.5 0-4.5 2-4.5 4.5s2 4.5 4.5 4.5 4.5-2 4.5-4.5-2-4.5-4.5-4.5zm0 7.1c-1.4 0-2.5-1.1-2.5-2.5s1.1-2.5 2.5-2.5 2.5 1.1 2.5 2.5-1.1 2.5-2.5 2.5z"/><path class="st1" d="M21.6 22c-1.5 0-2.8-1.2-2.8-2.8s1.2-2.8 2.8-2.8 2.8 1.2 2.8 2.8-1.3 2.8-2.8 2.8zm0-5c-1.3 0-2.3 1-2.3 2.3s1 2.3 2.3 2.3 2.3-1 2.3-2.3-1.1-2.3-2.3-2.3z"/></svg>