<svg version="1.1" id="Layer_1" xmlns="http://www.w3.org/2000/svg" x="0" y="0" viewBox="0 0 33.2 33.2" xml:space="preserve"><style>.st1{fill:#fff}.st3{fill:#eb5424}</style><path class="st1" d="M28.1 25.9h-23c-.1 0-.2-.1-.2-.2v-18c0-.1.1-.2.2-.2h23c.1 0 .2.1.2.2v18c.1.1 0 .2-.2.2zm-22.7-.5h22.5V7.9H5.4v17.5z"/><path class="st1" d="M28.1 10.9h-23c-.1 0-.2-.1-.2-.2s.1-.2.2-.2h23c.1 0 .2.1.2.2s0 .2-.2.2z"/><circle class="st1" cx="6.6" cy="9.1" r=".5"/><circle class="st1" cx="8.6" cy="9.1" r=".5"/><circle class="st1" cx="10.6" cy="9.1" r=".5"/><path class="st1" d="M27.9 14.5H5.5c-.1 0-.2-.1-.2-.2s0-.3.2-.3H28c.1 0 .2.1.2.2s-.2.3-.3.3zm-16.3 2.6H8c-.1 0-.2-.1-.2-.2s.1-.2.2-.2h3.7c.1 0 .2.1.2.2s-.1.2-.3.2z"/><path class="st3" d="M13.7 12.6H10c-.1 0-.2-.1-.2-.2s.1-.2.2-.2h3.7c.1 0 .2.1.2.2s0 .2-.2.2z"/><path class="st1" d="M11.6 19.1H8c-.1 0-.2-.1-.2-.2s.1-.2.2-.2h3.7c.1 0 .2.1.2.2s-.1.2-.3.2zm0 2H8c-.1 0-.2-.1-.2-.2s.1-.2.2-.2h3.7c.1 0 .2.1.2.2s-.1.2-.3.2zm0 2H8c-.1 0-.2-.1-.2-.2s.1-.2.2-.2h3.7c.1 0 .2.1.2.2s-.1.2-.3.2z"/><circle class="st1" cx="8.2" cy="12.4" r=".6"/><path class="st3" d="M18.7 18.7c-.4 1.2 0 2.4 1 3.1l.6-1.9-1.6-1.2zm2.7-2h-2.1l-.6 2h2zm2.7 2l-.7-2h-2l.6 2zm-4.4 3.1l1.7 1.2 1.6-1.2-1.6-1.2zm4.4-3.1l-1.7 1.2.6 1.9c1-.7 1.4-2 1.1-3.1z"/><path class="st1" d="M14.3 25.6c-.1 0-.2-.1-.2-.2V14.2c0-.1.1-.2.2-.2s.2.1.2.2v11.1c0 .2-.1.3-.2.3z"/></svg>