<svg version="1.1" id="Layer_1" xmlns="http://www.w3.org/2000/svg" x="0" y="0" viewBox="0 0 33.2 33.2" xml:space="preserve"><style>.st1{fill:#fff}.st3{fill:#eb5424}</style><path class="st1" d="M9.9 24.6H5.1c-.1 0-.2-.1-.2-.2V13.1c0-.1.1-.2.2-.2h3.7c.1-.1.2.1.2.2s-.1.2-.2.2H5.4V24H10c.1 0 .2.1.2.2s-.1.4-.3.4zm18.2 0h-2.9c-.1 0-.2-.1-.2-.2s.1-.2.2-.2h2.9c.1 0 .2.1.2.2s0 .2-.2.2z"/><path class="st3" d="M14.4 27.9h-1.7c-1.9 0-3.5-1.6-3.5-3.5s1.6-3.5 3.5-3.5h1.7v7z"/><path class="st1" d="M20.3 23.1h-2.6c-.1 0-.2-.1-.2-.2s.1-.2.2-.2h2.6c.1 0 .2.1.2.2s-.1.2-.2.2zm0 3h-2.6c-.1 0-.2-.1-.2-.2s.1-.2.2-.2h2.6c.1 0 .2.1.2.2s-.1.2-.2.2zm.2-5.3h1.7c1.9 0 3.5 1.6 3.5 3.5s-1.6 3.5-3.5 3.5h-1.7v-7zM9.2 14.1c-.6 0-1.1-.5-1.1-1.1 0-.6.5-1.1 1.1-1.1"/><path class="st1" d="M22.4 16H12.1c-1.8 0-3.2-1.4-3.2-3.2 0-1.7 1.3-3.1 3-3.2.4-2.6 2.7-4.5 5.4-4.5 1.9 0 3.7 1 4.7 2.7h.4c2.3 0 4.1 1.8 4.1 4.1S24.7 16 22.4 16zM12 10.2c-1.5 0-2.7 1.2-2.7 2.7s1.2 2.7 2.7 2.7h10.3c2 0 3.6-1.6 3.6-3.6s-1.6-3.6-3.6-3.6c-.2 0-.3 0-.5.1-.1 0-.2 0-.3-.1-.9-1.6-2.5-2.6-4.3-2.6-2.5 0-4.6 1.9-4.9 4.3 0 0-.1.1-.3.1z"/><path class="st3" d="M16.9 5.6s3 .3 3.9 4.1l.9-1.5c-.1.1-1.3-2.8-4.8-2.6z"/></svg>