<svg version="1.1" id="Layer_1" xmlns="http://www.w3.org/2000/svg" x="0" y="0" viewBox="0 0 33.2 33.2" xml:space="preserve"><style>.st1{fill:#fff}.st3{fill:#eb5424}</style><path class="st1" d="M19 15.9c-.1 0-.2-.1-.2-.2s.1-.2.2-.2h7c.1 0 .2.1.2.2s-.1.2-.2.2h-7zm-4.4-1.2h-.1l-6.2-4.3c-.1-.1-.1-.2-.1-.3.1-.1.2-.1.3-.1l6.2 4.3c.1.1.1.2.1.3 0 .1-.1.1-.2.1zm-8.2 4.7c-.1 0-.2-.1-.2-.2s0-.3.2-.3l7.8-2.7c.1 0 .3 0 .3.2 0 .1 0 .3-.2.3l-7.9 2.7c.1 0 .1 0 0 0zM20.5 6.6l-3 6.9m0 .3h-.1c-.1-.1-.2-.2-.1-.3l3-6.9c.1-.1.2-.2.3-.1.1.1.2.2.1.3l-3 6.9s-.1.1-.2.1zm3.4 7.9L18 17.9m2.9 4c-.1 0-.2 0-.2-.1L17.8 18c-.1-.1-.1-.3.1-.4.1-.1.3-.1.4.1l2.9 3.8c.1.1.1.3-.1.4h-.2zm-6.7 4.6l2-8.2m-2 8.4c-.2 0-.3-.2-.2-.3l1.9-8.1c0-.1.2-.2.3-.2.1 0 .2.2.2.3l-1.9 8.1c-.1.1-.2.2-.3.2z"/><circle class="st3" cx="9" cy="10.6" r="1.8"/><circle class="st3" cx="26.1" cy="15.5" r="1.8"/><circle class="st3" cx="20.8" cy="21.7" r="1.3"/><circle class="st3" cx="14.3" cy="26.1" r="2"/><circle class="st3" cx="6.7" cy="19.2" r="1.3"/><path class="st1" d="M16.6 18.6c-.9 0-1.7-.4-2.2-1.2-.8-1.2-.4-2.9.8-3.7 1.2-.8 2.9-.4 3.7.8.8 1.2.4 2.9-.8 3.7-.5.2-1 .4-1.5.4zm0-4.8c-.4 0-.8.1-1.2.3-1 .6-1.3 2-.6 3 .6 1 2 1.3 3 .6 1-.6 1.3-2 .6-3-.4-.6-1.1-.9-1.8-.9z"/><circle class="st3" cx="20.6" cy="6.4" r="1.2"/></svg>