<svg version="1.1" id="Layer_1" xmlns="http://www.w3.org/2000/svg" x="0" y="0" viewBox="0 0 33.2 33.2" xml:space="preserve"><style>.st1{fill:#fff}</style><path class="st1" d="M27.4 24.8H5.9c-.6 0-1-.5-1-1V9.5c0-.6.5-1 1-1h21.5c.6 0 1 .5 1 1v14.3c0 .5-.5 1-1 1zM5.9 9c-.3 0-.5.2-.5.5v14.3c0 .3.2.5.5.5h21.5c.3 0 .5-.2.5-.5V9.5c0-.3-.2-.5-.5-.5H5.9z"/><path fill="#eb5424" d="M7.1 10.6h19.1v12.1H7.1z"/><path class="st1" d="M10.3 19.2c-.1 0-.1 0-.2-.1s-.1-.3 0-.4l2.4-2.4-2.4-2.4c-.1-.1-.1-.3 0-.4s.3-.1.4 0l2.6 2.6c.1.1.1.3 0 .4l-2.6 2.6c-.1.1-.2.1-.2.1zm7.2.1h-2.7c-.1 0-.2-.1-.2-.2s.1-.2.2-.2h2.7c.1 0 .2.1.2.2s0 .2-.2.2z"/></svg>