<svg version="1.1" id="Layer_1" xmlns="http://www.w3.org/2000/svg" x="0" y="0" viewBox="0 0 33.2 33.2" xml:space="preserve"><style>.st1{fill:#fff}</style><path class="st1" d="M26.3 27.4H6.9c-.1 0-.2-.1-.2-.2v-21c0-.1.1-.2.2-.2h19.4c.1 0 .2.1.2.2v21c.1.1 0 .2-.2.2zm-19.1-.5h18.9V6.3H7.2v20.6z"/><path class="st1" d="M26.3 18.3c-.1 0-.2-.1-.2-.2v-7.2H7.2V18c0 .1-.1.2-.2.2s-.3-.1-.3-.2v-7.5c0-.1.1-.2.2-.2h19.4c.1 0 .2.1.2.2V18c.1.1 0 .3-.2.3z"/><circle class="st1" cx="18.7" cy="8.2" r=".7"/><path class="st1" d="M24.3 8.4h-3.2c-.1 0-.2-.1-.2-.2s.1-.2.2-.2h3.2c.1 0 .2.1.2.2s0 .2-.2.2z"/><path d="M22.4 18c-.6-.2-.8-.9-.4-1.3v-.1c.5-.6 0-1.5-.8-1.4h-.1c-.6.1-1.1-.4-1-1v-.1c.1-.8-.8-1.3-1.4-.8h-.1c-.4.4-1.1.2-1.3-.4v-.1c-.3-.7-1.3-.7-1.6 0v.1c-.2.5-.9.7-1.3.4h-.1c-.6-.5-1.5 0-1.4.8v.1c.1.6-.4 1.1-1 1h-.1c-.8-.1-1.3.8-.8 1.4v.1c.4.4.2 1.1-.4 1.3h-.1c-.7.3-.7 1.3 0 1.6h.1c.5.2.7.9.4 1.3v.1c-.5.6 0 1.5.8 1.4h.1c.6-.1 1.1.4 1 1v.1c-.1.8.8 1.3 1.4.8h.1c.4-.4 1.1-.2 1.3.4v.1c.3.7 1.3.7 1.6 0v-.1c.2-.5.9-.7 1.3-.4h.1c.6.5 1.5 0 1.4-.8v-.1c-.1-.6.4-1.1 1-1h.1c.8.1 1.3-.8.8-1.4v-.1c-.4-.4-.2-1.1.4-1.3h.1c.6-.3.6-1.3-.1-1.6zm-5.7 2.8c-1.1 0-2-.9-2-2s.9-2 2-2 2 .9 2 2-.9 2-2 2z" fill="#eb5424"/><path class="st1" d="M16.7 21.1c-1.3 0-2.3-1-2.3-2.3s1-2.3 2.3-2.3 2.3 1 2.3 2.3-1.1 2.3-2.3 2.3zm0-4.1c-1 0-1.8.8-1.8 1.8s.8 1.8 1.8 1.8 1.8-.8 1.8-1.8-.9-1.8-1.8-1.8z"/><path class="st1" d="M16.7 21.1c-1.3 0-2.3-1-2.3-2.3s1-2.3 2.3-2.3 2.3 1 2.3 2.3-1.1 2.3-2.3 2.3zm0-4.1c-1 0-1.8.8-1.8 1.8s.8 1.8 1.8 1.8 1.8-.8 1.8-1.8-.9-1.8-1.8-1.8z"/></svg>