<svg version="1.1" id="Layer_1" xmlns="http://www.w3.org/2000/svg" x="0" y="0" viewBox="0 0 33.2 33.2" xml:space="preserve"><style>.st1{fill:#fff}</style><path class="st1" d="M20.7 27.7h-8.1c-.1 0-.2 0-.2-.1s-.1-.1 0-.2l.9-3.2.5.1-.8 2.9h7.5l-.8-2.9.5-.1.8 3.2v.2c-.2 0-.2.1-.3.1z"/><path class="st1" d="M26.9 24.3H6.3c-1 0-1.8-.8-1.8-1.8V7.4c0-1 .8-1.8 1.8-1.8h20.6c1 0 1.8.8 1.8 1.8v15.2c0 .9-.8 1.7-1.8 1.7zM6.3 6.1c-.7 0-1.3.5-1.3 1.3v15.2c0 .7.6 1.3 1.3 1.3h20.6c.7 0 1.3-.6 1.3-1.3V7.4c0-.7-.6-1.3-1.3-1.3H6.3z"/><path class="st1" d="M26.2 22.2H7c-.2 0-.3-.2-.3-.3V8c0-.2.2-.3.3-.3h19.2c.2 0 .3.2.3.3v13.9c.1.2-.1.3-.3.3zm-19-.5h18.9V8.1H7.2v13.6z"/><path d="M21.8 14.3c-.5-.2-.7-.8-.4-1.2.4-.5 0-1.3-.7-1.2h-.1c-.5.1-.9-.3-.8-.8V11c.1-.7-.7-1.1-1.2-.7-.4.3-1 .2-1.1-.3v-.1c-.2-.6-1.1-.6-1.3 0v.1c-.2.5-.8.6-1.1.3-.5-.4-1.3 0-1.2.7v.1c.1.5-.3.9-.8.8H13c-.7-.1-1.1.7-.7 1.2.3.4.2 1-.3 1.1h-.1c-.6.2-.6 1.1 0 1.3h.1c.5.2.6.8.3 1.1-.4.5 0 1.3.7 1.2h.1c.5-.1.9.3.8.8v.1c-.1.7.7 1.1 1.2.7.4-.3 1-.2 1.1.3v.1c.2.6 1.1.6 1.3 0v-.1c.2-.5.8-.6 1.1-.3.5.4 1.3 0 1.2-.7v-.1c-.1-.5.3-.9.8-.8h.1c.7.1 1.1-.7.7-1.2-.3-.4-.2-1 .3-1.1h.1c.6-.1.6-1 0-1.2zm-4.9 2.4c-1 0-1.7-.8-1.7-1.7s.8-1.7 1.7-1.7c1 0 1.7.8 1.7 1.7s-.7 1.7-1.7 1.7z" fill="#eb5424"/><path d="M16.9 16.9c-1.1 0-2-.9-2-2s.9-2 2-2 2 .9 2 2-.9 2-2 2zm0-3.4c-.8 0-1.5.7-1.5 1.5s.7 1.5 1.5 1.5 1.5-.7 1.5-1.5c0-.9-.7-1.5-1.5-1.5z"/><path class="st1" d="M16.9 16.9c-1.1 0-2-.9-2-2s.9-2 2-2 2 .9 2 2-.9 2-2 2zm0-3.4c-.8 0-1.5.7-1.5 1.5s.7 1.5 1.5 1.5 1.5-.7 1.5-1.5c0-.9-.7-1.5-1.5-1.5z"/></svg>