<svg version="1.1" id="Layer_1" xmlns="http://www.w3.org/2000/svg" x="0" y="0" viewBox="0 0 33.2 33.2" xml:space="preserve"><style>.st1{fill:#fff}.st3{fill:#eb5424}</style><path class="st1" d="M21.9 29.2H11.4c-1.1 0-1.9-.9-1.9-1.9V6c0-1.1.9-1.9 1.9-1.9h10.5c1.1 0 1.9.9 1.9 1.9v21.2c0 1.1-.8 2-1.9 2zM11.4 4.6c-.8 0-1.4.6-1.4 1.4v21.2c0 .8.6 1.4 1.4 1.4h10.5c.8 0 1.4-.6 1.4-1.4V6c0-.8-.6-1.4-1.4-1.4H11.4z"/><path class="st1" d="M23.2 8.5H10.1c-.1 0-.2-.1-.2-.2s.1-.3.2-.3h13.1c.1 0 .2.1.2.2s-.1.3-.2.3zm-4.9-2h-3.4c-.1 0-.2-.1-.2-.2s.1-.3.2-.3h3.4c.1 0 .2.1.2.2s0 .3-.2.3zm5.1 18.1H9.9c-.1 0-.2-.1-.2-.2s.1-.2.2-.2h13.5c.1 0 .2.1.2.2s-.1.2-.2.2z"/><circle class="st3" cx="16.6" cy="26.7" r="1"/><path class="st3" d="M21.5 16c-.5-.2-.7-.8-.4-1.2.4-.5 0-1.3-.7-1.2h-.1c-.5.1-.9-.3-.8-.8v-.1c.1-.7-.7-1.1-1.2-.7-.4.3-1 .2-1.1-.3v-.1c-.2-.6-1.1-.6-1.3 0v.1c-.2.5-.8.6-1.1.3-.5-.4-1.3 0-1.2.7v.1c.1.5-.3.9-.8.8h-.1c-.7-.1-1.1.7-.7 1.2.3.4.2 1-.3 1.1h-.1c-.6.2-.6 1.1 0 1.3h.1c.5.2.6.8.3 1.1-.4.5 0 1.3.7 1.2h.1c.5-.1.9.3.8.8v.1c-.1.7.7 1.1 1.2.7.4-.3 1-.2 1.1.3v.1c.2.6 1.1.6 1.3 0v-.1c.2-.5.8-.6 1.1-.3.5.4 1.3 0 1.2-.7v-.1c-.1-.5.3-.9.8-.8h.1c.7.1 1.1-.7.7-1.2-.3-.4-.2-1 .3-1.1h.1c.6-.1.6-1 0-1.2zm-4.9 2.4c-1 0-1.7-.8-1.7-1.7 0-1 .8-1.7 1.7-1.7s1.7.8 1.7 1.7c0 .9-.8 1.7-1.7 1.7z"/><path d="M16.6 18.6c-1.1 0-2-.9-2-2s.9-2 2-2 2 .9 2 2-1 2-2 2zm0-3.5c-.8 0-1.5.7-1.5 1.5s.7 1.5 1.5 1.5 1.5-.7 1.5-1.5c-.1-.8-.7-1.5-1.5-1.5z"/><path class="st1" d="M16.6 18.6c-1.1 0-2-.9-2-2s.9-2 2-2 2 .9 2 2-1 2-2 2zm0-3.5c-.8 0-1.5.7-1.5 1.5s.7 1.5 1.5 1.5 1.5-.7 1.5-1.5c-.1-.8-.7-1.5-1.5-1.5z"/></svg>