<svg version="1.1" id="Layer_1" xmlns="http://www.w3.org/2000/svg" x="0" y="0" viewBox="0 0 33.2 33.2" xml:space="preserve"><style>.st1{fill:#fff}</style><path d="M19.4 16.4c-.2-.8-1-1.6-1.9-2 .5-.3.8-.8.8-1.4 0-.9-.7-1.6-1.6-1.6s-1.7.8-1.7 1.7c0 .6.3 1.1.8 1.4-.9.3-1.7 1-1.9 1.9-.3 1.2 1.2 1.8 2.8 1.8s2.9-.7 2.7-1.8z" fill="#eb5424"/><path class="st1" d="M24.5 27.5H8.8c-.1 0-.2-.1-.2-.2V6c0-.1.1-.2.2-.2h15.7c.1 0 .2.1.2.2v21.2c0 .1-.1.3-.2.3zM9 27h15.2V6.3H9V27z"/><path class="st1" d="M16.6 18.5c-2.7 0-4.8-2.2-4.8-4.8s2.2-4.8 4.8-4.8 4.8 2.2 4.8 4.8-2.1 4.8-4.8 4.8zm0-9.2c-2.4 0-4.3 1.9-4.3 4.3s1.9 4.3 4.3 4.3 4.3-1.9 4.3-4.3c.1-2.3-1.9-4.3-4.3-4.3zm4.6 11.8H12c-.1 0-.2-.1-.2-.2s.1-.2.2-.2h9.2c.1 0 .2.1.2.2s-.1.2-.2.2zm0 2.7H12c-.1 0-.2-.1-.2-.2s.1-.2.2-.2h9.2c.1 0 .2.1.2.2s-.1.2-.2.2z"/></svg>