<svg version="1.1" id="Layer_1" xmlns="http://www.w3.org/2000/svg" x="0" y="0" viewBox="0 0 33.2 33.2" xml:space="preserve"><style/><path d="M22.4 23.2H9.7c-2.1 0-3.9-1.7-3.9-3.9 0-2.1 1.6-3.8 3.7-3.8.5-3.2 3.3-5.6 6.5-5.6 2.4 0 4.6 1.3 5.7 3.3h.6c2.8 0 5 2.2 5 5s-2.2 5-4.9 5zM9.7 15.8v.2c-1.8 0-3.3 1.5-3.3 3.4s1.5 3.4 3.4 3.4h12.7c2.5 0 4.5-2 4.5-4.5 0-2.7-2.4-4.8-5.1-4.4-.1 0-.2 0-.3-.1-1.1-2-3.1-3.2-5.4-3.2-3.1 0-5.7 2.3-6.1 5.3 0 .1-.1.2-.3.2l-.1-.3z" fill="#fff"/><path d="M15.7 10.5s3.7.4 4.7 5l1.1-1.8s-1.6-3.4-5.8-3.2z" fill="#eb5424"/></svg>