<svg id="Layer_1" data-name="Layer 1" xmlns="http://www.w3.org/2000/svg" viewBox="0 0 33.24 33.24"><defs><style>.cls-1{fill:#eb5424}</style></defs><path d="M8.4 17.11h-.2a1.13 1.13 0 01-.9-.82l-.18-.71a.63.63 0 00-.72-.46l-.73.12a1.13 1.13 0 01-1.17-1.7l.37-.64a.62.62 0 00-.18-.83l-.6-.43a1.14 1.14 0 01.36-2l.71-.19a.62.62 0 00.46-.71L5.5 8A1.1 1.1 0 016 6.87a1.13 1.13 0 011.21 0l.64.37a.62.62 0 00.8-.24l.43-.6a1.14 1.14 0 012 .36l.18.71a.63.63 0 00.72.46l.73-.12a1.1 1.1 0 011.12.47 1.13 1.13 0 01.07 1.22l-.37.64a.62.62 0 00.18.83l.6.43a1.13 1.13 0 01-.36 2l-.71.19a.63.63 0 00-.46.72l.12.73a1.11 1.11 0 01-.47 1.12 1.13 1.13 0 01-1.21 0l-.64-.37a.62.62 0 00-.83.18l-.43.6a1.09 1.09 0 01-.92.54zm-1.89-2.52a1.11 1.11 0 011.09.84l.19.71a.62.62 0 00.5.46.61.61 0 00.62-.26l.43-.6a1.13 1.13 0 011.49-.33l.64.37a.62.62 0 00.68 0 .64.64 0 00.26-.63l-.13-.73a1.12 1.12 0 01.83-1.28l.71-.19a.62.62 0 00.46-.5.61.61 0 00-.26-.62l-.6-.43a1.12 1.12 0 01-.32-1.49l.37-.64a.63.63 0 00-.66-.94l-.72.13a1.13 1.13 0 01-1.29-.83l-.19-.71a.62.62 0 00-.5-.46.61.61 0 00-.62.26l-.43.6a1.12 1.12 0 01-1.49.32l-.64-.37a.63.63 0 00-.93.64l.13.72a1.13 1.13 0 01-.83 1.29l-.71.19a.62.62 0 00-.46.5.61.61 0 00.26.62l.6.43a1.12 1.12 0 01.32 1.49l-.37.64a.62.62 0 000 .67.63.63 0 00.63.27l.72-.13z"/><path d="M9.2 13.9a2 2 0 01-.42 0 2.38 2.38 0 01-1.54-1 2.34 2.34 0 01-.38-1.78 2.38 2.38 0 011-1.54 2.33 2.33 0 011.78-.38 2.38 2.38 0 011.54 1 2.33 2.33 0 01.38 1.78A2.38 2.38 0 019.2 13.9zm0-4.26a1.88 1.88 0 00-.33 3.73 1.84 1.84 0 001.4-.31 1.82 1.82 0 00.78-1.21 1.84 1.84 0 00-.31-1.4 1.82 1.82 0 00-1.21-.78zm2.1 2.26z"/><circle class="cls-1" cx="9.2" cy="11.52" r=".67"/><path d="M21.57 27.31a1.26 1.26 0 01-1.2-.85v-.09a.78.78 0 00-1.28-.37l-.09.1a1.29 1.29 0 01-2.1-1.21v-.09a.78.78 0 00-.91-.91h-.09a1.26 1.26 0 01-1.34-.62 1.28 1.28 0 01.13-1.47l.06-.07a.78.78 0 00-.33-1.24h-.09a1.28 1.28 0 010-2.41h.09a.78.78 0 00.33-1.24l-.06-.07a1.28 1.28 0 01-.13-1.47 1.27 1.27 0 011.34-.62h.1a.79.79 0 00.91-.91v-.09a1.26 1.26 0 01.62-1.34 1.28 1.28 0 011.47.13l.07.06a.78.78 0 001.24-.33v-.09a1.28 1.28 0 012.41 0v.09a.78.78 0 001.24.33l.07-.06a1.28 1.28 0 011.47-.13 1.26 1.26 0 01.62 1.34v.09a.78.78 0 00.91.91h.09a1.26 1.26 0 011.34.62 1.28 1.28 0 01-.13 1.47l-.06.07a.78.78 0 00.42 1.16h.09a1.28 1.28 0 010 2.41h-.09a.78.78 0 00-.33 1.24l.06.07a1.28 1.28 0 01.13 1.47 1.26 1.26 0 01-1.34.62h-.09a.78.78 0 00-.91.91v.09a1.26 1.26 0 01-.62 1.34 1.28 1.28 0 01-1.47-.13l-.06-.02a.78.78 0 00-1.24.33v.09a1.26 1.26 0 01-1.25.89zm-2-2a1.27 1.27 0 01.34 0 1.29 1.29 0 01.87.8v.09a.75.75 0 00.73.52.76.76 0 00.74-.52v-.09a1.33 1.33 0 01.88-.8 1.28 1.28 0 011.16.26l.07.06a.79.79 0 001.37-.63v-.09a1.27 1.27 0 011.49-1.49h.09a.79.79 0 00.69-1.29v-.07a1.25 1.25 0 01-.26-1.16 1.29 1.29 0 01.8-.87h.09a.78.78 0 000-1.47h-.09a1.28 1.28 0 01-.54-2l.06-.07a.79.79 0 00-.74-1.28h-.09a1.27 1.27 0 01-1.49-1.49v-.09a.79.79 0 00-1.28-.74l-.07.06a1.28 1.28 0 01-2-.54v-.09a.76.76 0 00-.74-.52.75.75 0 00-.73.52v.09a1.28 1.28 0 01-2 .54l-.07-.06a.78.78 0 00-.9-.08.77.77 0 00-.38.82v.09a1.27 1.27 0 01-1.49 1.49h-.09a.77.77 0 00-.82.38.78.78 0 00.08.9l.06.07a1.28 1.28 0 01-.54 2h-.1a.78.78 0 000 1.47h.09a1.28 1.28 0 01.54 2l-.06.07a.78.78 0 00-.24.9.77.77 0 00.82.38h.09a1.27 1.27 0 011.49 1.49V25a.77.77 0 00.38.82.78.78 0 00.9-.08l.07-.06a1.27 1.27 0 01.84-.33zm9.11-5.12zM9.29 23.94a.67.67 0 01-.24 0 .78.78 0 01-.54-.64l-.17-1.37a.21.21 0 00-.08-.17l-1-.93a.78.78 0 01.42-1.35l1.32-.2a.26.26 0 00.17-.09l.93-1a.78.78 0 011.35.43l.19 1.38a.26.26 0 00.09.16l1 .93a.78.78 0 01-.42 1.35l-1.31.14a.21.21 0 00-.16.08l-.93 1a.76.76 0 01-.62.28zm1.41-5.53a.33.33 0 00-.2.09l-.93 1a.76.76 0 01-.47.24l-1.38.17a.27.27 0 00-.22.19.26.26 0 00.07.29l1 .93a.73.73 0 01.25.48L9 23.2a.24.24 0 00.19.22.27.27 0 00.29-.07l.93-1a.73.73 0 01.47-.25l1.37-.17a.26.26 0 00.23-.19.27.27 0 00-.07-.29l-1-.93a.73.73 0 01-.25-.47L11 18.66a.26.26 0 00-.19-.23zm1.59 3.75z"/><circle class="cls-1" cx="9.99" cy="20.93" r=".67"/><path class="cls-1" d="M21.57 14.71a4.55 4.55 0 104.55 4.54 4.54 4.54 0 00-4.55-4.54zm0 7.06a2.52 2.52 0 112.52-2.52 2.52 2.52 0 01-2.52 2.52z"/><path d="M21.57 22a2.77 2.77 0 112.77-2.77A2.78 2.78 0 0121.57 22zm0-5a2.27 2.27 0 102.27 2.26A2.27 2.27 0 0021.57 17z"/></svg>