<svg id="Layer_1" data-name="Layer 1" xmlns="http://www.w3.org/2000/svg" viewBox="0 0 33.24 33.24"><defs><style>.cls-1{fill:#fff}.cls-2{fill:#eb5424}</style></defs><path d="M19 15.86a.25.25 0 110-.5h7a.25.25 0 01.25.25.25.25 0 01-.25.25zm-4.36-1.17a.23.23 0 01-.14 0l-6.19-4.33A.25.25 0 018.6 10l6.18 4.29a.23.23 0 01.06.34.23.23 0 01-.2.06zm-8.21 4.74a.23.23 0 01-.23-.17.25.25 0 01.15-.32l7.77-2.65a.25.25 0 01.32.16.23.23 0 01-.15.31l-7.78 2.66z"/><path class="cls-1" d="M20.5 6.65l-3.02 6.88"/><path d="M17.48 13.78h-.1a.25.25 0 01-.13-.33l3-6.88a.24.24 0 01.33-.13.25.25 0 01.12.33l-3 6.88a.26.26 0 01-.22.13z"/><path class="cls-1" d="M20.87 21.68l-2.85-3.83"/><path d="M20.87 21.93a.23.23 0 01-.2-.1L17.82 18a.25.25 0 11.4-.3l2.85 3.83a.25.25 0 01-.05.35.23.23 0 01-.15.05z"/><path class="cls-1" d="M14.23 26.46l1.92-8.14"/><path d="M14.23 26.71h-.06a.25.25 0 01-.19-.3l1.93-8.13a.25.25 0 11.48.11l-1.92 8.13a.25.25 0 01-.24.19z"/><circle class="cls-2" cx="8.99" cy="10.57" r="1.79"/><circle class="cls-2" cx="26.06" cy="15.54" r="1.79"/><circle class="cls-2" cx="20.76" cy="21.73" r="1.27"/><circle class="cls-2" cx="14.26" cy="26.12" r="2"/><circle class="cls-2" cx="6.72" cy="19.15" r="1.33"/><path d="M16.6 18.57a2.65 2.65 0 112.22-4.08 2.65 2.65 0 01-.82 3.66 2.59 2.59 0 01-1.4.42zm0-4.79a2.15 2.15 0 101.81 1 2.16 2.16 0 00-1.82-1z"/><circle class="cls-2" cx="20.58" cy="6.36" r="1.24"/></svg>