<svg id="Layer_1" data-name="Layer 1" xmlns="http://www.w3.org/2000/svg" viewBox="0 0 33.24 33.24"><defs><style>.cls-1{fill:#eb5424}</style></defs><path d="M24.84 27.62H8.4a.25.25 0 01-.25-.25V5.87a.25.25 0 01.25-.25h16.44a.25.25 0 01.25.25v21.5a.25.25 0 01-.25.25zm-16.19-.5h15.94v-21H8.65z"/><path d="M16.62 10.67h-5.5a.25.25 0 010-.5h5.5a.25.25 0 010 .5z"/><path class="cls-1" d="M21.29 10.67h-2.17a.25.25 0 010-.5h2.17a.25.25 0 010 .5z"/><path d="M16.62 13.67h-5.5a.25.25 0 010-.5h5.5a.25.25 0 010 .5z"/><path class="cls-1" d="M22.29 13.67h-3.17a.25.25 0 010-.5h3.17a.25.25 0 010 .5z"/><path d="M16.62 16.67h-5.5a.25.25 0 110-.5h5.5a.25.25 0 110 .5z"/><path class="cls-1" d="M20.29 16.67h-1.17a.25.25 0 010-.5h1.17a.25.25 0 010 .5z"/><path d="M16.62 19.67h-5.5a.25.25 0 110-.5h5.5a.25.25 0 110 .5z"/><path class="cls-1" d="M22.29 19.67h-3.17a.25.25 0 010-.5h3.17a.25.25 0 010 .5z"/><path d="M16.62 22.67h-5.5a.25.25 0 110-.5h5.5a.25.25 0 110 .5z"/><path class="cls-1" d="M19.29 22.67h-.17a.25.25 0 010-.5h.17a.25.25 0 010 .5z"/></svg>