<svg id="Layer_1" data-name="Layer 1" xmlns="http://www.w3.org/2000/svg" viewBox="0 0 33.24 33.24"><defs><style>.cls-1{fill:#eb5424}</style></defs><path d="M26.86 26.57h-1.8a.25.25 0 01-.25-.25.25.25 0 01.25-.25h1.8c1.08 0 2-1.95 2-4.25s-.92-4.25-2-4.25h-1.8a.25.25 0 01-.25-.25.25.25 0 01.25-.25h1.8c1.4 0 2.5 2.08 2.5 4.75s-1.1 4.75-2.5 4.75z"/><path d="M25.06 26.57a2 2 0 01-1.64-1.14.25.25 0 01.09-.34.25.25 0 01.34.08 1.55 1.55 0 001.21.9c1.08 0 2-1.95 2-4.25s-.92-4.25-2-4.25a1.48 1.48 0 00-1.13.77.25.25 0 11-.42-.28 1.93 1.93 0 011.55-1c1.4 0 2.5 2.08 2.5 4.75s-1.1 4.76-2.5 4.76z"/><path d="M23.89 25.55a.25.25 0 01-.25-.25.25.25 0 01.25-.25c.73 0 1.52-1.32 1.52-3.29s-.79-3.29-1.52-3.29h-5a.25.25 0 010-.5h5.21c1 .21 1.8 1.79 1.8 3.77s-.9 3.81-2.01 3.81zm-9.55-7.08H9.53a.25.25 0 010-.5h4.81a.25.25 0 110 .5zm-.04 7.08H9.63a.25.25 0 01-.25-.25.25.25 0 01.25-.25h4.67a.26.26 0 01.25.25.25.25 0 01-.25.25z"/><path d="M24 25.55h-5a.25.25 0 01-.25-.25.25.25 0 01.25-.25h5a.25.25 0 01.25.25.25.25 0 01-.25.25zM8.18 26.57h-1.8a.26.26 0 01-.25-.25.25.25 0 01.25-.25h1.8c1.09 0 2-1.95 2-4.25s-.91-4.25-2-4.25h-1.8a.26.26 0 01-.25-.25.25.25 0 01.25-.25h1.8c1.41 0 2.5 2.08 2.5 4.75s-1.09 4.75-2.5 4.75z"/><path d="M6.38 26.57c-1.4 0-2.5-2.09-2.5-4.75s1.1-4.75 2.5-4.75 2.5 2.08 2.5 4.75-1.09 4.75-2.5 4.75zm0-9c-1.08 0-2 1.94-2 4.25s.92 4.25 2 4.25 2-1.95 2-4.25-.91-4.25-2-4.25z"/><ellipse cx="6.26" cy="21.87" rx=".87" ry="2.39"/><path class="cls-1" d="M16.55 15.43a.25.25 0 01-.25-.25v-.25a.25.25 0 01.25-.25.25.25 0 01.25.25v.25a.25.25 0 01-.25.25zm0-2.25a.25.25 0 01-.25-.25v-2a.25.25 0 01.25-.25.25.25 0 01.25.25v2a.25.25 0 01-.25.25zm0-4a.25.25 0 01-.25-.25v-2a.25.25 0 01.25-.25.25.25 0 01.25.25v2a.25.25 0 01-.25.25zm.97 17.39h-1.8a.25.25 0 01-.25-.25.25.25 0 01.25-.25h1.8c1.09 0 2-1.95 2-4.25s-.91-4.25-2-4.25h-1.8a.25.25 0 01-.25-.25.25.25 0 01.25-.25h1.8c1.4 0 2.5 2.08 2.5 4.75s-1.1 4.75-2.5 4.75z"/><path class="cls-1" d="M15.72 26.57a1.78 1.78 0 01-1.65-1.15.26.26 0 01.11-.34.25.25 0 01.34.11c.38.73.74.88 1.2.88 1.09 0 2-1.95 2-4.25s-.91-4.25-2-4.25a1.56 1.56 0 00-1.17.83.24.24 0 01-.34.07.25.25 0 01-.08-.34 2 2 0 011.59-1.06c1.4 0 2.5 2.08 2.5 4.75s-1.1 4.75-2.5 4.75z"/><path class="cls-1" d="M14.3 25.55a.25.25 0 01-.25-.25.25.25 0 01.25-.25c.77 0 1.67-1.43 1.67-3.29s-.79-3.29-1.52-3.29a.25.25 0 010-.5c1.13 0 2 1.67 2 3.79s-.98 3.79-2.15 3.79z"/></svg>