<svg xmlns="http://www.w3.org/2000/svg" viewBox="0 0 33.24 33.24"><defs><style>.cls-3{fill:#eb5424}</style></defs><g style="isolation:isolate"><g id="Layer_1" data-name="Layer 1"><path d="M21.89 29.17H11.35a1.94 1.94 0 01-1.94-1.94V6a1.94 1.94 0 011.94-1.94h10.54A1.94 1.94 0 0123.83 6v21.23a1.94 1.94 0 01-1.94 1.94zM11.35 4.57A1.45 1.45 0 009.91 6v21.23a1.44 1.44 0 001.44 1.44h10.54a1.43 1.43 0 001.44-1.44V6a1.44 1.44 0 00-1.44-1.44z"/><path d="M23.15 8.53H10.09a.25.25 0 010-.5h13.06a.25.25 0 010 .5zM18.32 6.5h-3.4a.25.25 0 010-.5h3.4a.25.25 0 010 .5zm5.05 18.12H9.87a.25.25 0 010-.5h13.5a.25.25 0 010 .5z"/><circle class="cls-3" cx="16.62" cy="26.69" r="1.03"/><path class="cls-3" d="M21.46 16h-.07a.72.72 0 01-.3-1.13v-.05a.71.71 0 00-.67-1.16h-.02a.72.72 0 01-.83-.83v-.06a.71.71 0 00-1.15-.77.71.71 0 01-1.13-.3v-.06a.71.71 0 00-1.34 0v.06a.71.71 0 01-1.13.3h-.05a.71.71 0 00-1.16.67v.06a.71.71 0 01-.82.83h-.07a.71.71 0 00-.72 1.19v.05a.71.71 0 01-.3 1.13h-.06a.71.71 0 000 1.34h.06a.71.71 0 01.3 1.13.71.71 0 00.67 1.16h.06a.71.71 0 01.83.83v.06a.71.71 0 001.16.67h.05a.72.72 0 011.13.3v.07a.72.72 0 001.34 0v-.07a.71.71 0 011.13-.3.71.71 0 001.16-.67v-.06a.71.71 0 01.83-.83h.06a.71.71 0 00.67-1.16.72.72 0 01.3-1.13h.07a.71.71 0 000-1.27zm-4.91 2.41a1.74 1.74 0 111.74-1.74 1.74 1.74 0 01-1.74 1.69z"/><path d="M16.55 18.61a2 2 0 112-2 2 2 0 01-2 2zm0-3.47a1.49 1.49 0 000 3 1.49 1.49 0 100-3z"/><path d="M16.55 18.61a2 2 0 112-2 2 2 0 01-2 2zm0-3.47a1.49 1.49 0 000 3 1.49 1.49 0 100-3z"/></g></g></svg>