<svg data-name="Layer 1" xmlns="http://www.w3.org/2000/svg" viewBox="0 0 33.24 33.24"><path d="M26.32 27.39H6.92a.25.25 0 01-.25-.25V6.1a.25.25 0 01.25-.25h19.4a.25.25 0 01.25.25v21a.25.25 0 01-.25.29zm-19.15-.5h18.9V6.35H7.17z"/><path d="M26.32 18.26a.25.25 0 01-.25-.25v-7.23H7.17V18a.25.25 0 01-.5 0v-7.47a.25.25 0 01.25-.25h19.4a.25.25 0 01.25.25V18a.25.25 0 01-.25.26z"/><circle cx="18.69" cy="8.18" r=".69"/><path d="M24.33 8.43h-3.24a.26.26 0 01-.25-.25.25.25 0 01.25-.25h3.24a.25.25 0 01.25.25.26.26 0 01-.25.25z"/><path d="M22.39 18h-.07a.83.83 0 01-.32-1.31v-.06a.83.83 0 00-.78-1.36h-.07a.84.84 0 01-1-1v-.07a.83.83 0 00-1.35-.78h-.06a.83.83 0 01-1.32-.35V13a.83.83 0 00-1.57 0v.07a.82.82 0 01-1.32.35.83.83 0 00-1.36.78v.07a.84.84 0 01-1 1h-.07a.84.84 0 00-.79 1.36v.06A.83.83 0 0111 18h-.07a.83.83 0 000 1.57H11a.83.83 0 01.35 1.32v.06a.84.84 0 00.79 1.36h.07a.84.84 0 011 1v.07a.83.83 0 001.36.78.82.82 0 011.32.35v.07a.83.83 0 001.57 0v-.07a.83.83 0 011.32-.35h.06a.83.83 0 001.35-.78v-.07a.84.84 0 011-1h.07A.83.83 0 0022 21v-.06a.83.83 0 01.35-1.32h.07a.83.83 0 00-.03-1.62zm-5.73 2.81a2 2 0 112-2 2 2 0 01-2 2.03z" fill="#eb5424"/><path d="M16.66 21.09a2.28 2.28 0 112.28-2.28 2.28 2.28 0 01-2.28 2.28zm0-4.05a1.78 1.78 0 101.78 1.77A1.77 1.77 0 0016.66 17z"/><path d="M16.66 21.09a2.28 2.28 0 112.28-2.28 2.28 2.28 0 01-2.28 2.28zm0-4.05a1.78 1.78 0 101.78 1.77A1.77 1.77 0 0016.66 17z"/></svg>