<svg xmlns="http://www.w3.org/2000/svg" viewBox="0 0 33.24 33.24"><defs><style>.cls-2{fill:#eb5424}</style></defs><g style="isolation:isolate"><g id="Layer_1" data-name="Layer 1"><path class="cls-2" d="M19.3 14.89l-.2-.63H9.94v9.35h13.64v-8.72zm-.79 6l-1.65 1.2-1.66-1.2a2.8 2.8 0 01-1-3.14l.63-1.95h4.07l.63 1.95a2.79 2.79 0 01-1.02 3.13z"/><path class="cls-2" d="M19.53 17.74h-2.04l-.63-1.95-.63 1.95h-2.05l1.65 1.2-.63 1.94 1.66-1.2 1.65 1.2-.63-1.94 1.65-1.2z"/><path d="M23.58 23.87H9.94a.25.25 0 01-.25-.25v-9.36a.25.25 0 01.25-.26h9.16a.24.24 0 01.23.17l.15.46h4.1a.25.25 0 01.25.25v8.73a.25.25 0 01-.25.26zm-13.39-.5h13.14v-8.23h-4a.26.26 0 01-.24-.17l-.14-.46h-8.76z"/><path d="M19.1 14.51H8.62a.25.25 0 01-.25-.25v-4.5a.25.25 0 01.25-.25h9a.25.25 0 010 .5H8.87v4H19.1a.25.25 0 010 .5zm5.79 13.86H8.62a.25.25 0 01-.25-.25v-4.5a.25.25 0 01.25-.25h16.27a.25.25 0 01.25.25v4.5a.25.25 0 01-.25.25zm-16-.5h15.75v-4H8.87z"/><path d="M8.15 26.43H5.46a.25.25 0 010-.5h2.69a.25.25 0 010 .5zm19.63 0h-2.66a.25.25 0 110-.5h2.66a.25.25 0 010 .5z"/><path d="M7.34 25.27h1.05v1.79H7.34zm17.78 0h1.03v1.79h-1.03z"/><path class="cls-2" d="M22.44 26.16h-5.72a.25.25 0 010-.5h5.72a.25.25 0 010 .5zM18.32 12.2h-1.8a.25.25 0 01-.25-.25.25.25 0 01.25-.25h1.8a.25.25 0 01.25.25.25.25 0 01-.25.25z"/><circle cx="14.04" cy="12.01" r=".62"/><circle cx="14.04" cy="25.79" r=".62"/><path d="M25.65 15.14H19.3a.26.26 0 01-.24-.17l-2-6a.25.25 0 01.09-.27l5.14-3.73a.23.23 0 01.29 0l5.14 3.73a.25.25 0 01.09.27l-2 6a.24.24 0 01-.16.17zm-6.17-.5h6L27.31 9l-4.84-3.56L17.64 9z"/><path class="cls-2" d="M22.48 7.15L19.25 9.5l1.23 3.79h3.99L25.7 9.5l-3.22-2.35z"/></g></g></svg>