<svg xmlns="http://www.w3.org/2000/svg" viewBox="0 0 33.24 33.24"><g data-name="Layer 1"><path d="M28.12 25.87h-23a.25.25 0 01-.25-.25v-18a.25.25 0 01.25-.25h23a.25.25 0 01.25.25v18a.25.25 0 01-.25.25zm-22.75-.5h22.5V7.87H5.37z"/><path d="M28.12 10.87h-23a.25.25 0 110-.5h23a.25.25 0 010 .5z"/><circle cx="6.62" cy="9.12" r=".5"/><circle cx="8.62" cy="9.12" r=".5"/><circle cx="10.62" cy="9.12" r=".5"/><path d="M20.62 19.87h-8a.25.25 0 01-.25-.25v-2a.25.25 0 01.25-.25h8a.25.25 0 01.25.25v2a.25.25 0 01-.25.25zm-7.75-.5h7.5v-1.5h-7.5z"/><path fill="#eb5424" d="M5.38 10.86h22.48v2.52H5.38z"/></g></svg>