<svg xmlns="http://www.w3.org/2000/svg" viewBox="0 0 33.24 33.24"><defs><style>.cls-3{fill:#eb5424}</style></defs><g style="isolation:isolate"><g id="Layer_1" data-name="Layer 1"><path d="M24.49 27.46H8.75a.25.25 0 01-.25-.25V6a.25.25 0 01.25-.25h15.74a.25.25 0 01.25.25v21.21a.25.25 0 01-.25.25zM9 27h15.24V6.28H9z"/><path d="M16.62 18.51a4.84 4.84 0 114.83-4.83 4.84 4.84 0 01-4.83 4.83zm0-9.17A4.34 4.34 0 1021 13.68a4.34 4.34 0 00-4.38-4.34zm4.58 11.81H12a.25.25 0 010-.5h9.2a.25.25 0 010 .5zm0 2.64H12a.25.25 0 010-.5h9.2a.25.25 0 010 .5z"/><g style="mix-blend-mode:multiply"><circle class="cls-3" cx="16.59" cy="13.11" r="1.62"/><path class="cls-3" d="M13.8 16.42a2.9 2.9 0 012.79-2.09 2.94 2.94 0 012.81 2.11c.19 1.08-1.14 1.82-2.78 1.82s-3.11-.68-2.82-1.84z"/></g></g></g></svg>