<svg data-name="Layer 1" xmlns="http://www.w3.org/2000/svg" viewBox="0 0 33.24 33.24"><path d="M16.62 28.37a.27.27 0 01-.16-.06L5 18.8a.32.32 0 01-.09-.17.31.31 0 01.06-.19L16.43 5a.26.26 0 01.38 0l11.5 13.48a.22.22 0 01.06.19.32.32 0 01-.09.17l-11.5 9.51a.23.23 0 01-.16.02zm-11.14-9.8l11.14 9.23 11.15-9.23L16.62 5.51z"/><path d="M16.62 8.28L8 18.35l8.59 7.12 8.59-7.12zm.59 8a.25.25 0 00-.16.25.27.27 0 00.2.23 2.86 2.86 0 012.22 2 .65.65 0 01-.12.56c-.41.49-1.74.55-2.7.55s-2.36-.06-2.73-.53a.68.68 0 01-.08-.59 2.88 2.88 0 012.21-2 .27.27 0 00.2-.23.24.24 0 00-.16-.25 1.52 1.52 0 112.08-1.41 1.49 1.49 0 01-.96 1.42zm-5 2.11a2.16 2.16 0 011.65-1.51 1.21 1.21 0 01.44-2.33 1 1 0 01.35.07 2 2 0 000 .25 2 2 0 00.67 1.49 1 1 0 01-.1.17 3.27 3.27 0 00-1.85 2.12 1.3 1.3 0 000 .68c-.78-.08-1.31-.33-1.15-.94zm7.69.93a1.31 1.31 0 00.05-.63 3.19 3.19 0 00-2-2.21.16.16 0 010-.07 2 2 0 00.72-1.54 2.46 2.46 0 000-.28.86.86 0 01.28 0 1.21 1.21 0 011.21 1.21 1.19 1.19 0 01-.78 1.12A2.14 2.14 0 0121 18.41c.13.59-.36.81-1.09.91z" fill="#eb5424"/></svg>