<svg xmlns="http://www.w3.org/2000/svg" viewBox="0 0 33.24 33.24"><defs><style>.cls-2{mix-blend-mode:multiply}.cls-3{fill:#eb5424}</style></defs><g style="isolation:isolate"><g id="Layer_1" data-name="Layer 1"><path d="M23.73 27.81H9.51a.25.25 0 01-.23-.17l-4.4-13.52a.26.26 0 01.12-.28l11.5-8.36a.27.27 0 01.3 0l11.5 8.36a.25.25 0 01.09.28L24 27.64a.26.26 0 01-.27.17zm-14-.5h13.82l4.28-13.17L16.62 6l-11.2 8.14z"/><g class="cls-2"><path class="cls-3" d="M16.62 8.53L7.79 15l3.37 10.39h10.92L25.46 15zm1.22 8.58v1.2l-.4.82.4.63-.36.4.45.73-.64.59.55 1.23-1.48.87-1-.95v-5.52a3 3 0 01-1.71-2.68 2.94 2.94 0 114.15 2.68z"/></g><g class="cls-2"><circle class="cls-3" cx="16.62" cy="13.56" r=".63"/></g></g></g></svg>