<svg xmlns="http://www.w3.org/2000/svg" viewBox="0 0 33.24 33.24"><g data-name="Layer 1"><path d="M27.35 24.78H5.89a1 1 0 01-1-1V9.48a1 1 0 011-1h21.46a1 1 0 011 1v14.28a1 1 0 01-1 1.02zM5.89 9a.52.52 0 00-.52.52v14.24a.52.52 0 00.52.52h21.46a.52.52 0 00.52-.52V9.48a.52.52 0 00-.52-.48z"/><path fill="#eb5424" d="M7.07 10.58h19.1v12.08H7.07z"/><path d="M10.26 19.17a.25.25 0 01-.18-.42l2.43-2.43-2.43-2.43a.24.24 0 010-.35.25.25 0 01.36 0l2.6 2.6a.25.25 0 010 .36l-2.6 2.6a.26.26 0 01-.18.07zm7.29.18h-2.66a.25.25 0 010-.5h2.66a.25.25 0 110 .5z" fill="#fff"/></g></svg>