<svg id="Layer_1" data-name="Layer 1" xmlns="http://www.w3.org/2000/svg" viewBox="0 0 33.24 33.24"><defs><style>.cls-1{fill:#eb5424}</style></defs><path d="M9.92 24.59h-4.8a.25.25 0 01-.25-.25V13.09a.25.25 0 01.25-.25h3.67a.25.25 0 01.25.25.25.25 0 01-.25.25H5.37v10.75h4.55a.25.25 0 01.25.25.25.25 0 01-.25.25zm18.2 0h-2.88a.25.25 0 01-.25-.25.25.25 0 01.25-.25h2.88a.25.25 0 01.25.25.25.25 0 01-.25.25z"/><path class="cls-1" d="M14.44 27.86h-1.71a3.54 3.54 0 01-3.52-3.52 3.54 3.54 0 013.52-3.53h1.71z"/><path d="M20.26 23.09H17.7a.25.25 0 010-.5h2.56a.25.25 0 010 .5zm0 2.99H17.7a.25.25 0 010-.5h2.56a.25.25 0 110 .5z"/><path d="M20.47 20.81h1.71a3.53 3.53 0 013.52 3.53 3.53 3.53 0 01-3.52 3.52h-1.71zM9.19 14.09A1.12 1.12 0 018.07 13a1.12 1.12 0 011.12-1.11"/><path d="M22.4 16H12.06a3.18 3.18 0 01-.17-6.36A5.44 5.44 0 0122 7.83a3.25 3.25 0 01.44 0 4.11 4.11 0 110 8.22zm-10.35-5.84a2.68 2.68 0 000 5.36H22.4a3.61 3.61 0 100-7.22 2.94 2.94 0 00-.51 0 .27.27 0 01-.28-.13 4.94 4.94 0 00-9.25 1.72.28.28 0 01-.31.27z"/><path class="cls-1" d="M16.91 5.65s3 .29 3.87 4.09l.86-1.46a4.87 4.87 0 00-4.73-2.63z"/></svg>