<svg id="Layer_1" data-name="Layer 1" xmlns="http://www.w3.org/2000/svg" viewBox="0 0 33.24 33.24"><defs><style>.cls-1{fill:#eb5424}</style></defs><path d="M28.12 25.87h-23a.25.25 0 01-.25-.25v-18a.25.25 0 01.25-.25h23a.25.25 0 01.25.25v18a.25.25 0 01-.25.25zm-22.75-.5h22.5V7.87H5.37z"/><path d="M28.12 10.87h-23a.25.25 0 110-.5h23a.25.25 0 010 .5z"/><circle cx="6.62" cy="9.12" r=".5"/><circle cx="8.62" cy="9.12" r=".5"/><circle cx="10.62" cy="9.12" r=".5"/><path d="M27.91 14.49H5.46a.25.25 0 01-.25-.25.25.25 0 01.25-.24h22.45a.25.25 0 01.25.25.25.25 0 01-.25.24zm-16.29 2.65H8a.25.25 0 01-.25-.25.25.25 0 01.25-.25h3.66a.25.25 0 01.25.25.25.25 0 01-.29.25z"/><path class="cls-1" d="M13.72 12.65h-3.66a.25.25 0 01-.25-.25.25.25 0 01.25-.25h3.66a.25.25 0 01.25.25.25.25 0 01-.25.25z"/><path d="M11.62 19.14H8a.25.25 0 01-.25-.25.25.25 0 01.25-.25h3.66a.25.25 0 01.25.25.25.25 0 01-.29.25zm0 2H8a.25.25 0 01-.25-.25.25.25 0 01.25-.25h3.66a.25.25 0 01.25.25.25.25 0 01-.29.25zm0 2H8a.25.25 0 01-.25-.25.25.25 0 01.25-.25h3.66a.25.25 0 01.25.25.25.25 0 01-.29.25z"/><circle cx="8.2" cy="12.4" r=".62"/><path class="cls-1" d="M18.7 18.69a2.79 2.79 0 001 3.14l.63-1.94zm2.67-1.95h-2.04l-.63 1.95h2.04l.63-1.95zm2.68 1.95l-.63-1.95h-2.05l.64 1.95h2.04zm-4.33 3.14l1.65 1.21 1.66-1.21-1.66-1.2-1.65 1.2z"/><path class="cls-1" d="M24.05 18.69l-1.65 1.2.6 1.94a2.8 2.8 0 001.05-3.14z"/><path d="M14.3 25.62a.25.25 0 01-.25-.25V14.24a.25.25 0 01.25-.24.26.26 0 01.25.25v11.12a.25.25 0 01-.25.25z"/></svg>