<svg xmlns="http://www.w3.org/2000/svg" viewBox="0 0 33.24 33.24"><g data-name="Layer 1"><path d="M25.84 28.37H7.4a.25.25 0 01-.25-.25v-23a.25.25 0 01.25-.25h18.44a.25.25 0 01.25.25v23a.25.25 0 01-.25.25zm-18.19-.5h17.94V5.37H7.65z"/><path d="M25.84 16.69H7.4a.25.25 0 01-.25-.25V9.33a.25.25 0 01.25-.25h18.44a.25.25 0 01.25.25v7.11a.25.25 0 01-.25.25zm-18.19-.5h17.94V9.58H7.65z"/><circle cx="18.59" cy="7.1" r=".66"/><path d="M23.94 7.35h-3.07a.25.25 0 01-.25-.25.25.25 0 01.25-.25h3.07a.25.25 0 01.25.25.25.25 0 01-.25.25zm-5.57 12.44h-3.49a.25.25 0 010-.5h3.49a.25.25 0 010 .5zM15.44 23h-5.6a.25.25 0 01-.25-.25.25.25 0 01.25-.25h5.6a.25.25 0 01.25.25.25.25 0 01-.25.25zm0 2.25h-5.6a.25.25 0 010-.5h5.6a.25.25 0 010 .5zM23.4 23h-5.59a.25.25 0 01-.25-.25.25.25 0 01.25-.25h5.59a.25.25 0 01.25.25.25.25 0 01-.25.25zm0 2.25h-5.59a.25.25 0 010-.5h5.59a.25.25 0 010 .5z"/><path fill="#eb5424" d="M7.64 9.29h17.95v7.15H7.64z"/></g></svg>