<svg data-name="Layer 1" xmlns="http://www.w3.org/2000/svg" viewBox="0 0 33.24 33.24"><path d="M24.49 27.46H8.75a.25.25 0 01-.25-.25V6a.25.25 0 01.25-.25h15.74a.25.25 0 01.25.25v21.21a.25.25 0 01-.25.25zM9 27h15.24V6.28H9z"/><path d="M22.47 6.21a1.86 1.86 0 001.86 1.86V6.21zm-11.75 0a1.86 1.86 0 01-1.86 1.86V6.21zm11.75 20.86a1.86 1.86 0 011.86-1.86v1.86zm-11.75 0a1.86 1.86 0 00-1.86-1.86v1.86z"/><path d="M16.62 12.2A4.42 4.42 0 1021 16.62a4.42 4.42 0 00-4.38-4.42zm2.06 2.74l-2.5 3.64a.21.21 0 01-.18.11.22.22 0 01-.17-.07l-1.21-1.21a.24.24 0 010-.35.25.25 0 01.36 0l1 1 2.33-3.39a.26.26 0 01.35-.07.25.25 0 01.02.34z" fill="#eb5424"/></svg>