<svg id="Layer_1" data-name="Layer 1" xmlns="http://www.w3.org/2000/svg" viewBox="0 0 33.24 33.24"><defs><style>.cls-1{fill:#eb5424}</style></defs><path class="cls-1" d="M9.94 13.15h13.64v2.43H9.94z"/><path d="M23.58 15.83H9.94a.25.25 0 01-.25-.25v-2.43a.25.25 0 01.25-.25h13.64a.25.25 0 01.25.25v2.43a.25.25 0 01-.25.25zm-13.39-.5h13.14V13.4H10.19z"/><path class="cls-1" d="M9.94 20.08h13.64v2.43H9.94z"/><path d="M23.58 22.76H9.94a.25.25 0 01-.25-.25v-2.43a.25.25 0 01.25-.25h13.64a.25.25 0 01.25.25v2.43a.25.25 0 01-.25.25zm-13.39-.5h13.14v-1.93H10.19z"/><path d="M24.89 20.33H8.62a.25.25 0 01-.25-.25v-4.5a.25.25 0 01.25-.25h16.27a.25.25 0 01.25.25v4.5a.25.25 0 01-.25.25zm-16-.5h15.75v-4H8.87zm16-6.43H8.62a.25.25 0 01-.25-.25v-4.5a.25.25 0 01.25-.25h16.27a.25.25 0 01.25.25v4.5a.25.25 0 01-.25.25zm-16-.5h15.75v-4H8.87zm16 14.36H8.62a.25.25 0 01-.25-.26v-4.5a.25.25 0 01.25-.25h16.27a.25.25 0 01.25.25V27a.25.25 0 01-.25.26zm-16-.5h15.75v-4H8.87z"/><path d="M8.15 25.32H5.46a.25.25 0 010-.5h2.69a.25.25 0 010 .5zm19.63 0h-2.66a.25.25 0 110-.5h2.66a.25.25 0 010 .5z"/><path d="M7.34 24.16h1.05v1.79H7.34zm17.78 0h1.03v1.79h-1.03z"/><path class="cls-1" d="M22.25 18h-5.73a.25.25 0 010-.5h5.73a.25.25 0 010 .5zm.19 7.05h-5.72a.25.25 0 010-.5h5.72a.25.25 0 010 .5zm-.19-13.96h-5.73a.25.25 0 01-.25-.25.25.25 0 01.25-.25h5.73a.25.25 0 01.25.25.25.25 0 01-.25.25z"/><circle cx="14.04" cy="10.9" r=".62"/><circle cx="14.04" cy="17.76" r=".62"/><circle cx="14.04" cy="24.68" r=".62"/><path d="M22.86 8.86h-4.21a.24.24 0 01-.23-.34l.94-2.38A.26.26 0 0119.6 6h2.31a.24.24 0 01.23.15l.95 2.38a.24.24 0 01-.23.34zM19 8.36h3.47l-.75-1.87h-2z"/></svg>