<svg data-name="Layer 1" xmlns="http://www.w3.org/2000/svg" viewBox="0 0 33.24 33.24"><path d="M20.69 27.68h-8.14a.27.27 0 01-.2-.09.29.29 0 010-.22l.86-3.18.48.13-.77 2.86h7.49l-.76-2.88.48-.13.84 3.2a.25.25 0 010 .22.25.25 0 01-.28.09z"/><path d="M26.92 24.34H6.32a1.8 1.8 0 01-1.8-1.8V7.36a1.8 1.8 0 011.8-1.8h20.6a1.81 1.81 0 011.81 1.8v15.18a1.81 1.81 0 01-1.81 1.8zM6.32 6.06A1.3 1.3 0 005 7.36v15.18a1.3 1.3 0 001.3 1.3h20.6a1.31 1.31 0 001.31-1.3V7.36a1.31 1.31 0 00-1.31-1.3z"/><path d="M26.22 22.25H7a.35.35 0 01-.34-.35V8A.34.34 0 017 7.65h19.2a.34.34 0 01.34.34V21.9a.35.35 0 01-.32.35zm-19-.5h18.84V8.15H7.18z"/><path d="M21.8 14.28h-.06a.71.71 0 01-.31-1.13.71.71 0 00-.67-1.16h-.06a.72.72 0 01-.83-.83v-.06a.72.72 0 00-1.17-.67.71.71 0 01-1.13-.3v-.07a.72.72 0 00-1.34 0v.07a.72.72 0 01-1.13.3h-.05a.71.71 0 00-1.16.67v.06a.71.71 0 01-.82.83H13a.71.71 0 00-.68 1.16.71.71 0 01-.31 1.13h-.06a.71.71 0 000 1.34h.06a.71.71 0 01.3 1.13v.05A.71.71 0 0013 18h.06a.71.71 0 01.82.83v.06a.71.71 0 001.16.67h.05a.71.71 0 011.13.3v.06a.71.71 0 001.34 0v-.06a.71.71 0 011.13-.3.72.72 0 001.17-.67v-.06a.72.72 0 01.83-.83h.06a.71.71 0 00.67-1.16v-.05a.71.71 0 01.31-1.13h.06a.71.71 0 00.01-1.38zm-4.91 2.4A1.74 1.74 0 1118.63 15a1.73 1.73 0 01-1.74 1.68z" fill="#eb5424"/><path d="M16.89 16.93a2 2 0 112-2 2 2 0 01-2 2zm0-3.47A1.49 1.49 0 1018.38 15a1.49 1.49 0 00-1.49-1.54z"/><path d="M16.89 16.93a2 2 0 112-2 2 2 0 01-2 2zm0-3.47A1.49 1.49 0 1018.38 15a1.49 1.49 0 00-1.49-1.54z"/></svg>