<svg data-name="Layer 1" xmlns="http://www.w3.org/2000/svg" viewBox="0 0 33.24 33.24"><path d="M25.73 25H7.51a.25.25 0 01-.25-.25v-7a.25.25 0 01.25-.25h18.22a.25.25 0 01.25.25v6.95a.25.25 0 01-.25.3zm-18-.5h17.75v-6.6H7.76z"/><path d="M26.52 17.9H6.72a.25.25 0 01-.25-.25v-4.29a2 2 0 012-2h16.31a2 2 0 012 2v4.29a.25.25 0 01-.26.25zM7 17.4h19.3v-4a1.5 1.5 0 00-1.49-1.5H8.46A1.5 1.5 0 007 13.36z"/><path d="M10.62 15.54h3.23v4.22h-3.23zm8.77 0h3.23v4.22h-3.23z" fill="#eb5424"/><path d="M21.31 11.86h-9.37a.25.25 0 01-.25-.25V9.35a1.05 1.05 0 011.05-1.06h7.76a1.06 1.06 0 011.06 1.06v2.26a.25.25 0 01-.25.25zm-9.12-.5h8.87v-2a.56.56 0 00-.56-.56h-7.76a.56.56 0 00-.55.56z"/></svg>