<svg data-name="Layer 1" xmlns="http://www.w3.org/2000/svg" viewBox="0 0 33.24 33.24"><path d="M16.62 27.37c-4.73 0-9.76-.89-9.76-2.53V8.4a.25.25 0 01.5 0v16.44c0 .85 3.52 2 9.26 2s9.27-1.18 9.27-2V8.4a.25.25 0 01.25-.25.26.26 0 01.25.25v16.44c0 1.64-5.03 2.53-9.77 2.53z"/><ellipse cx="16.62" cy="8.4" rx="9.51" ry="2.28" fill="#eb5424"/><path d="M16.62 10.94c-4.73 0-9.76-.89-9.76-2.54s5-2.53 9.76-2.53 9.77.89 9.77 2.53-5.03 2.54-9.77 2.54zm0-4.57c-5.74 0-9.26 1.19-9.26 2s3.52 2 9.26 2 9.27-1.19 9.27-2-3.53-2-9.27-2zm0 15.48c-4.73 0-9.76-.89-9.76-2.53a.25.25 0 01.5 0c0 .85 3.52 2 9.26 2s9.27-1.18 9.27-2a.25.25 0 01.25-.25.25.25 0 01.25.25c0 1.68-5.03 2.53-9.77 2.53zm0-5.46c-4.73 0-9.76-.88-9.76-2.53a.25.25 0 01.5 0c0 .85 3.52 2 9.26 2s9.27-1.18 9.27-2a.25.25 0 01.25-.25.25.25 0 01.25.25c0 1.65-5.03 2.53-9.77 2.53zm0-2.89a.25.25 0 01-.25-.25.25.25 0 01.25-.25c1.19 0 2.34-.05 3.43-.15a.26.26 0 01.28.23.25.25 0 01-.23.27c-1.1.1-2.28.15-3.48.15zm6.22-.5a.26.26 0 01-.25-.2.25.25 0 01.2-.29l.77-.18a.25.25 0 01.12.48c-.25.07-.51.13-.79.18zm-6.22 5.92a.25.25 0 010-.5c1.18 0 2.34-.05 3.43-.16a.27.27 0 01.28.23.25.25 0 01-.23.27c-1.1.11-2.28.16-3.48.16zm6.22-.56a.25.25 0 01-.05-.49l.77-.18a.24.24 0 01.3.18.24.24 0 01-.18.3l-.79.19zm-6.22 5.97a.25.25 0 010-.5c1.19 0 2.34 0 3.43-.15a.26.26 0 01.28.22.25.25 0 01-.23.27c-1.1.11-2.27.16-3.48.16zm6.22-.55a.26.26 0 01-.25-.2.26.26 0 01.2-.3c.27-.05.52-.11.77-.18a.25.25 0 01.3.18.25.25 0 01-.18.31l-.79.18z"/></svg>