<svg data-name="Layer 1" xmlns="http://www.w3.org/2000/svg" viewBox="0 0 33.24 33.24"><path d="M24.86 24.32h-.08a.25.25 0 01-.16-.31l3.21-9.86-4.43-3.23a.26.26 0 01-.06-.35.25.25 0 01.35-.06l4.58 3.33a.25.25 0 01.09.28l-3.26 10a.24.24 0 01-.24.2zm-2.4 3.49H9.51a.25.25 0 01-.23-.17l-1.92-5.85a.25.25 0 11.48-.16l1.86 5.68h12.76a.25.25 0 010 .5zM6.31 18a.25.25 0 01-.23-.17l-1.2-3.67a.26.26 0 01.12-.32l11.5-8.36a.26.26 0 01.3 0L20.12 8a.25.25 0 11-.3.4L16.62 6l-11.2 8.14 1.13 3.49a.26.26 0 01-.16.32z"/><path fill="#eb5424" d="M16.62 10.42l-7.03 5.12 2.68 8.26h8.7l2.69-8.26-7.04-5.12z"/><path d="M24.9 24.63a.23.23 0 01-.16-.11L23.6 22.8a.26.26 0 01.08-.35.24.24 0 01.34.08L25 24l1.5-1a.26.26 0 01.35.07.26.26 0 01-.08.35L25 24.59a.33.33 0 01-.1.04zM18.2 8.92a.26.26 0 01-.2-.21.25.25 0 01.21-.28l1.76-.28-.28-1.76a.25.25 0 01.21-.29.25.25 0 01.28.21l.32 2a.25.25 0 01-.21.28l-2 .32zM6.56 23.45a.27.27 0 01-.12 0 .26.26 0 01-.1-.34l1-1.79a.25.25 0 01.34-.1l1.78 1a.25.25 0 01.11.34.26.26 0 01-.34.1l-1.57-.85-.85 1.56a.24.24 0 01-.25.08z"/></svg>